<svg id="SvgjsSvg1016" width="288" height="288" xmlns="http://www.w3.org/2000/svg" version="1.1" xmlns:xlink="http://www.w3.org/1999/xlink" xmlns:svgjs="http://svgjs.com/svgjs"><defs id="SvgjsDefs1017"></defs><g id="SvgjsG1018" transform="matrix(0.9167,0,0,0.9167,11.995200000000011,11.995200000000011)"><svg xmlns="http://www.w3.org/2000/svg" width="288" height="288" fill-rule="evenodd" clip-rule="evenodd" image-rendering="optimizeQuality" shape-rendering="geometricPrecision" text-rendering="geometricPrecision" viewBox="0 0 6.827 6.827"><path fill-rule="nonzero" d="M1.59407 2.5837c.145752-.304453.369319-.564642.645004-.754787.309394-.213409.685071-.338374 1.09053-.338374.530976 0 1.01169.215213 1.35963.563157.347949.347949.563161.828654.563161 1.35963 0 .0809606.0656299.146594.146591.146594.0809606 0 .146594-.0656339.146594-.146594 0-.611909-.248039-1.1659-.649055-1.56692-.401016-.401016-.955012-.649055-1.56692-.649055-.466067 0-.89902.144425-1.25659.391063-.35474.244681-.634654.590236-.798409.995287l.319465 0zM5.57838 4.19943l.000527559-.00144882-.316236 0c-.144827.323823-.376673.600315-.665839.799764-.309398.213409-.685071.338374-1.09054.338374-.530976 0-1.01168-.215213-1.35963-.563157-.347949-.347949-.563157-.828654-.563157-1.35963 0-.0809606-.0656339-.146594-.146594-.146594-.0809606 0-.146591.0656339-.146591.146594 0 .611909.248035 1.1659.649051 1.56692.401016.401016.955016.649055 1.56692.649055.466067 0 .89902-.144425 1.25659-.391063.367382-.253402.654528-.614988.815488-1.03881z" fill="#5d5d5a" class="color000 svgShape"></path><path fill-rule="nonzero" d="M3.9685 3.69267c0,0.0650906 -0.011626,0.123591 -0.0348701,0.175894 -0.0228622,0.0519213 -0.0557913,0.097248 -0.0980197,0.134831 -0.0422323,0.0379646 -0.093374,0.068189 -0.153425,0.0910472 -0.0596654,0.0224724 -0.125917,0.0368031 -0.19837,0.0430039l-0.0240197 0.242921c-0.000771654,0.00620079 -0.00232283,0.0112402 -0.00503543,0.0158858 -0.0027126,0.00464961 -0.0073622,0.00852362 -0.0147244,0.0112362 -0.00735827,0.00309843 -0.0170472,0.00581102 -0.0294409,0.0073622 -0.0124016,0.00193701 -0.0282835,0.00309843 -0.0472677,0.00309843 -0.0240236,0 -0.0437795,-0.00116142 -0.0585079,-0.00348425 -0.0147205,-0.00232677 -0.0263425,-0.0054252 -0.0344803,-0.00968898 -0.0081378,-0.00426378 -0.0139449,-0.00968504 -0.0162677,-0.0162717 -0.0027126,-0.00697638 -0.00348819,-0.0147244 -0.00194094,-0.0228583l0.0240236 -0.230524c-0.0325472,-0.00465354 -0.0631535,-0.0104606 -0.0922126,-0.017437 -0.0286693,-0.0073622 -0.0546299,-0.0151063 -0.0782638,-0.0240197 -0.0232441,-0.00852362 -0.0437795,-0.0174331 -0.0608228,-0.0267323 -0.0166614,-0.00890945 -0.0298346,-0.0178228 -0.0383583,-0.0263465 -0.00890945,-0.00890945 -0.0151102,-0.0216969 -0.0185945,-0.0387441 -0.00387402,-0.0170472 -0.00581102,-0.0422283 -0.00581102,-0.0755512 0,-0.0255669 0.000771654,-0.046878 0.00232283,-0.0635394 0.00155118,-0.0166575 0.00387402,-0.0294409 0.00774803,-0.0387402 0.00387402,-0.00891339 0.00852362,-0.0151102 0.0143346,-0.0185984 0.00581102,-0.00348819 0.0123976,-0.00503543 0.0197598,-0.00503543 0.0100709,0 0.0244094,0.00581102 0.0430039,0.0170433 0.0189843,0.0112402 0.0433937,0.0236339 0.0728386,0.0375866 0.0294449,0.0135551 0.0650906,0.0259567 0.107319,0.037189 0.0418425,0.011626 0.091437,0.0170472 0.148,0.0170472 0.0887244,0 0.154587,-0.0162717 0.197591,-0.0492047 0.0430079,-0.0329291 0.0647087,-0.0767087 0.0647087,-0.131339 0,-0.0360315 -0.00930315,-0.066252 -0.0278976,-0.0895 -0.0185984,-0.0236339 -0.0433937,-0.0441654 -0.0743898,-0.0619882 -0.0309961,-0.0178189 -0.0658622,-0.0337047 -0.104992,-0.0476535 -0.0387441,-0.0139488 -0.0786535,-0.0286693 -0.11972,-0.0449449 -0.0406811,-0.0158819 -0.0805866,-0.0340906 -0.119717,-0.0554016 -0.0391339,-0.0213071 -0.074,-0.0472638 -0.104996,-0.0782638 -0.0309921,-0.0309921 -0.0557874,-0.0685748 -0.0743858,-0.11313 -0.0185984,-0.0441654 -0.0278937,-0.0976299 -0.0278937,-0.160398 0,-0.0569528 0.0096811,-0.108484 0.0286693,-0.154976 0.0185984,-0.0464921 0.0461024,-0.0871693 0.081748,-0.122039 0.0352559,-0.0348701 0.0790354,-0.0631496 0.130953,-0.0844606 0.0519173,-0.0216929 0.110807,-0.0364213 0.176669,-0.0437795l0.0224724 -0.228201c0.000775591,-0.00619685 0.00232283,-0.0112362 0.00503543,-0.0154961 0.0027126,-0.00387402 0.00775197,-0.00774803 0.0147244,-0.0112362 0.0073622,-0.00348819 0.0170433,-0.00581102 0.0290551,-0.0073622 0.0120118,-0.00155118 0.0278976,-0.00232677 0.0476575,-0.00232677 0.0236339,0 0.0430039,0.00116535 0.0585,0.00348819 0.0154961,0.00232677 0.0275079,0.0054252 0.0356457,0.00968898 0.00852362,0.00425984 0.0135591,0.0096811 0.0158858,0.0162717 0.00232283,0.00697244 0.00348819,0.0147205 0.00348819,0.0228583l-0.0224724 0.214642c0.0209213,0.00309449 0.0433937,0.0069685 0.0666378,0.0123937 0.0236339,0.0054252 0.0457165,0.011622 0.0658661,0.0185984 0.0205315,0.0073622 0.0391299,0.0147205 0.0557874,0.0228583 0.0166614,0.00775197 0.0282835,0.0151102 0.0344843,0.0216969 0.00658268,0.00620079 0.0112323,0.0127874 0.0147205,0.0189843 0.00348819,0.00658661 0.00620079,0.0143346 0.0081378,0.0240197 0.00193701,0.00929921 0.00309843,0.0209213 0.00387402,0.0340984 0.000771654,0.0131693 0.00115748,0.0282795 0.00115748,0.0457165 0,0.0236339 -0.000385827,0.0430039 -0.00154331,0.0581142 -0.00116142,0.0151063 -0.00348819,0.0267323 -0.00658661,0.0344803 -0.0027126,0.0081378 -0.00620079,0.0131732 -0.0100787,0.0158858 -0.00387402,0.0027126 -0.00812992,0.00387402 -0.0135551,0.00387402 -0.00968898,0 -0.0244094,-0.00464961 -0.0430079,-0.0147244 -0.0189843,-0.0096811 -0.0422283,-0.0201457 -0.070126,-0.0317677 -0.0275079,-0.0112362 -0.0592756,-0.0216969 -0.095311,-0.0317717 -0.0356417,-0.0096811 -0.0751575,-0.0147205 -0.118551,-0.0147205 -0.0391339,0 -0.0728386,0.00387402 -0.101122,0.0112323 -0.0278976,0.00775197 -0.0503661,0.0182087 -0.0678031,0.0321614 -0.0174331,0.0135591 -0.0302205,0.0298307 -0.0387402,0.0488189 -0.0081378,0.0185945 -0.0124016,0.0395157 -0.0124016,0.062374 0,0.0352559 0.00929921,0.0654764 0.0282835,0.0894961 0.0189843,0.0244094 0.0441693,0.0449449 0.0755512,0.062378 0.0313819,0.0174331 0.0670276,0.0333228 0.106543,0.0476535 0.0399055,0.0143346 0.0802008,0.0294488 0.121657,0.0453307 0.0410669,0.0158858 0.081748,0.0344803 0.121268,0.0554016 0.0399016,0.0205354 0.0751614,0.0464921 0.106154,0.0771024 0.0309961,0.0306102 0.0561811,0.0677992 0.0751654,0.111193 0.0185945,0.0433937 0.0282835,0.0956969 0.0282835,0.157299z" fill="#5d5d5a" class="color000 svgShape"></path><polygon points="1.434 2.92 2.014 3.5 .853 3.5" fill="#5d5d5a" class="color000 svgShape"></polygon><polygon points="5.393 3.872 5.973 3.292 4.813 3.292" fill="#5d5d5a" class="color000 svgShape"></polygon><rect width="6.827" height="6.827" fill="none"></rect></svg></g></svg>