<?xml version="1.0" encoding="UTF-8" standalone="no"?><svg xmlns="http://www.w3.org/2000/svg" xmlns:xlink="http://www.w3.org/1999/xlink" width="20px" height="20px" viewBox="0 0 20 20" version="1.1"><title>key [#678]</title><g id="Page-1" stroke="none" stroke-width="1" fill="none" fill-rule="evenodd"><g id="Dribbble-Light-Preview" transform="translate(-60.000000, -5199.000000)" fill="#000"><g id="icons" transform="translate(56.000000, 160.000000)"><path d="M17.896 5049.163a4.071 4.071 0 0 1-4.069-4.065 4.071 4.071 0 0 1 4.07-4.065 4.071 4.071 0 0 1 4.068 4.065 4.071 4.071 0 0 1-4.069 4.065m-1.378-10.012c-2.253.492-4.068 2.309-4.57 4.558-.413 1.848.025 3.588.985 4.93l-8.635 8.626a1.017 1.017 0 0 0 1.438 1.437l.732-.73.69.69a1.017 1.017 0 0 0 1.44 0 1.014 1.014 0 0 0 0-1.438l-.691-.69 2.013-2.011.71.71a1.016 1.016 0 1 0 1.438-1.437l-.71-.71 3.016-3.013c1.341.949 3.077 1.379 4.92.966 2.247-.502 4.061-2.314 4.554-4.561a6.115 6.115 0 0 0-7.33-7.327" id="key-[#678]"/></g></g></g><metadata><rdf:RDF xmlns:rdf="http://www.w3.org/1999/02/22-rdf-syntax-ns#" xmlns:rdfs="http://www.w3.org/2000/01/rdf-schema#" xmlns:dc="http://purl.org/dc/elements/1.1/"><rdf:Description about="https://iconscout.com/legal#licenses" dc:title="key" dc:description="key" dc:publisher="Iconscout" dc:date="2017-09-15" dc:format="image/svg+xml" dc:language="en"><dc:creator><rdf:Bag><rdf:li>Alexandru Stoica</rdf:li></rdf:Bag></dc:creator></rdf:Description></rdf:RDF></metadata></svg>