<svg id="SvgjsSvg1012" width="288" height="288" xmlns="http://www.w3.org/2000/svg" version="1.1" xmlns:xlink="http://www.w3.org/1999/xlink" xmlns:svgjs="http://svgjs.com/svgjs"><defs id="SvgjsDefs1013"></defs><g id="SvgjsG1014" transform="matrix(0.9167,0,0,0.9167,11.995200000000011,11.995200000000011)"><svg xmlns="http://www.w3.org/2000/svg" enable-background="new 0 0 48 48" viewBox="0 0 48 48" width="288" height="288"><path d="M33.5,12c0-5.24-4.26-9.5-9.5-9.5s-9.5,4.26-9.5,9.5c0,4.26,2.92,8.05,7,9.16V44c0,0.83,0.67,1.5,1.5,1.5h2
		c0.83,0,1.5-0.67,1.5-1.5v-2.5H30c0.28,0,0.5-0.22,0.5-0.5s-0.22-0.5-0.5-0.5h-3.5v-4H30c0.28,0,0.5-0.22,0.5-0.5
		s-0.22-0.5-0.5-0.5h-3.5V21.16C30.58,20.05,33.5,16.26,33.5,12z M25.85,20.29c-0.25,0.06-0.4,0.29-0.37,0.54
		c0,0.03,0.01,0.06,0.02,0.09V44c0,0.28-0.22,0.5-0.5,0.5h-2c-0.28,0-0.5-0.22-0.5-0.5V20.98c0.02-0.05,0.03-0.09,0.04-0.15
		c0.03-0.25-0.14-0.49-0.39-0.54C18.3,19.44,15.5,15.95,15.5,12c0-4.69,3.81-8.5,8.5-8.5c4.69,0,8.5,3.81,8.5,8.5
		C32.5,15.95,29.7,19.44,25.85,20.29z" fill="#5d5d5a" class="color000 svgShape"></path><path d="M24,6.5c-1.93,0-3.5,1.57-3.5,3.5s1.57,3.5,3.5,3.5s3.5-1.57,3.5-3.5S25.93,6.5,24,6.5z M24,12.5c-1.38,0-2.5-1.12-2.5-2.5
		s1.12-2.5,2.5-2.5c1.38,0,2.5,1.12,2.5,2.5S25.38,12.5,24,12.5z" fill="#5d5d5a" class="color000 svgShape"></path></svg></g></svg>