<svg id="SvgjsSvg1027" width="288" height="288" xmlns="http://www.w3.org/2000/svg" version="1.1" xmlns:xlink="http://www.w3.org/1999/xlink" xmlns:svgjs="http://svgjs.com/svgjs"><defs id="SvgjsDefs1028"></defs><g id="SvgjsG1029" transform="matrix(0.9167,0,0,0.9167,11.995200000000011,11.995201032733917)"><svg xmlns="http://www.w3.org/2000/svg" data-name="Layer 1" viewBox="0 0 168 168" width="288" height="288"><path fill="#87c5d6" d="M76.35046,86.01109l-3.29773,20.10968a3.99989,3.99989,0,0,0,.774,3.08258l7,9.12146a4,4,0,0,0,6.34656,0l7-9.12146a3.99989,3.99989,0,0,0,.774-3.08258L91.64954,86.01109a33.7807,33.7807,0,0,1-3.94312.67267L91,106.76811l-7,9.12146-7-9.12146,3.29358-20.08435A33.7807,33.7807,0,0,1,76.35046,86.01109Z" class="color0bceb2 svgShape"></path><path fill="#0a0a0a" d="M105.21289,74.10246c.04291-.04291.07446-.09229.11267-.13794a29.93851,29.93851,0,0,0,0-42.1499c-.03821-.04565-.06976-.095-.11267-.13794-.04309-.04315-.09265-.07489-.13855-.11328a29.93852,29.93852,0,0,0-42.14868,0c-.0459.03839-.09546.07013-.13855.11328-.04291.04291-.07446.09229-.11267.13794a29.93851,29.93851,0,0,0,0,42.1499c.03821.04565.06976.095.11267.13794.043.04309.09253.07477.13837.1131a29.93851,29.93851,0,0,0,42.149,0C105.12036,74.17723,105.16986,74.14555,105.21289,74.10246Zm-2.82812-5.65625a1.99979,1.99979,0,1,0-2.82812,2.82813l1.35486,1.35486A25.87753,25.87753,0,0,1,86,78.8054V76.88957a2,2,0,0,0-4,0V78.8054a25.87753,25.87753,0,0,1-14.9115-6.17621l1.35486-1.35486a1.99979,1.99979,0,0,0-2.82812-2.82812l-1.35486,1.35486a25.87753,25.87753,0,0,1-6.17621-14.9115H60a2,2,0,0,0,0-4H58.08417a25.87753,25.87753,0,0,1,6.17621-14.9115l1.35486,1.35486a1.99979,1.99979,0,0,0,2.82813-2.82812L67.0885,33.14994A25.87753,25.87753,0,0,1,82,26.97374v1.91583a2,2,0,0,0,4,0V26.97374a25.87753,25.87753,0,0,1,14.9115,6.17621L99.55664,34.5048a1.99979,1.99979,0,1,0,2.82812,2.82813l1.35486-1.35486a25.87753,25.87753,0,0,1,6.17621,14.9115H108a2,2,0,0,0,0,4h1.91583a25.87753,25.87753,0,0,1-6.17621,14.9115Z" class="color2d4356 svgShape"></path><path fill="#87c5d6" d="M100.125,50.88957H89.65a5.97412,5.97412,0,0,0-8.23035-3.40851l-6.50555-6.50555a1.99979,1.99979,0,0,0-2.82812,2.82813l6.50555,6.50555A5.99338,5.99338,0,1,0,89.65,54.88957h10.475a2,2,0,0,0,0-4Zm-16.125,4a2,2,0,1,1,2-2A2,2,0,0,1,84,54.88957Z" class="color0bceb2 svgShape"></path><circle cx="2" cy="148.89" r="2" fill="#0a0a0a" class="color2d4356 svgShape"></circle><path fill="#0a0a0a" d="M11 146.88957H8a2 2 0 0 0 0 4h3a2 2 0 0 0 0-4zM160 146.88957h-3a2 2 0 0 0 0 4h3a2 2 0 0 0 0-4z" class="color2d4356 svgShape"></path><circle cx="166" cy="148.89" r="2" fill="#0a0a0a" class="color2d4356 svgShape"></circle><path fill="#87c5d6" d="M118.15387 154.88957h-8.30774a2.00641 2.00641 0 0 0 0 4h8.30774a2.00641 2.00641 0 0 0 0-4zM58.15387 154.88957H49.84613a2.00641 2.00641 0 0 0 0 4h8.30774a2.00641 2.00641 0 0 0 0-4zM104 154.88957H64a2 2 0 0 0 0 4H79.94v2H72a2 2 0 0 0 0 4H97a2 2 0 0 0 0-4H88.06v-2H104a2 2 0 0 0 0-4zM64 122.88957v24H60v-24a2 2 0 0 1 4 0zM108 122.88957v24h-4v-24a2 2 0 0 1 4 0z" class="color0bceb2 svgShape"></path><path fill="#0a0a0a" d="M153 148.88957a2.15641 2.15641 0 0 1-2.28 2H17.28a2.0172 2.0172 0 1 1 0-4h23.8a7.979 7.979 0 0 1-1.08-4v-38a43.93948 43.93948 0 0 1 15.5-33.49 34.20649 34.20649 0 0 0 2.37 3.22 39.8856 39.8856 0 0 0-13.87 30.27v38a3.99891 3.99891 0 0 0 4 4h72a3.99891 3.99891 0 0 0 4-4v-38a39.8856 39.8856 0 0 0-13.87-30.27 34.20649 34.20649 0 0 0 2.37-3.22 43.93948 43.93948 0 0 1 15.5 33.49v38a7.979 7.979 0 0 1-1.08 4h23.8A2.15637 2.15637 0 0 1 153 148.88957zM125.9907 43.38957a3 3 0 1 0-3-3A3.00344 3.00344 0 0 0 125.9907 43.38957zm0-4.5a1.5 1.5 0 1 1-1.5 1.5A1.50148 1.50148 0 0 1 125.9907 38.88957zM151 67.88957a2 2 0 1 0 2 2A2.00229 2.00229 0 0 0 151 67.88957zm0 3a1 1 0 1 1 1-1A1.001 1.001 0 0 1 151 70.88957zM18.66667 5.88957a2 2 0 1 0 2 2A2.00229 2.00229 0 0 0 18.66667 5.88957zm0 3a1 1 0 1 1 1-1A1.001 1.001 0 0 1 18.66667 8.88957zM133 3.11043a2 2 0 1 0 2 2A2.00229 2.00229 0 0 0 133 3.11043zm0 3a1 1 0 1 1 1-1A1.001 1.001 0 0 1 133 6.11043zM33 62.29615a2 2 0 1 0-2 2A2.00229 2.00229 0 0 0 33 62.29615zm-3 0a1 1 0 1 1 1 1A1.001 1.001 0 0 1 30 62.29615z" class="color2d4356 svgShape"></path><polygon fill="#87c5d6" points="6.415 45.831 7.902 43.875 6.963 43.343 6.009 45.533 5.977 45.533 5.008 43.359 4.052 43.907 5.524 45.816 5.524 45.847 3.223 45.549 3.223 46.613 5.539 46.316 5.539 46.348 4.052 48.256 4.944 48.82 5.962 46.613 5.992 46.613 6.931 48.804 7.917 48.241 6.415 46.363 6.415 46.332 8.777 46.613 8.777 45.549 6.415 45.862 6.415 45.831" class="color0bceb2 svgShape"></polygon><polygon fill="#87c5d6" points="47.734 27.127 46.878 28.226 47.392 28.551 47.978 27.28 47.996 27.28 48.536 28.541 49.104 28.217 48.239 27.136 48.239 27.118 49.599 27.28 49.599 26.667 48.239 26.847 48.239 26.829 49.095 25.703 48.555 25.397 48.005 26.658 47.987 26.658 47.429 25.406 46.878 25.721 47.726 26.821 47.726 26.839 46.401 26.667 46.401 27.28 47.734 27.109 47.734 27.127" class="color0bceb2 svgShape"></polygon><polygon fill="#87c5d6" points="162.029 25.918 162.029 24.875 159.712 25.182 159.712 25.151 161.17 23.233 160.249 22.711 159.313 24.859 159.282 24.859 158.331 22.726 157.394 23.264 158.837 25.136 158.837 25.167 156.581 24.875 156.581 25.918 158.852 25.627 158.852 25.658 157.394 27.53 158.269 28.083 159.267 25.918 159.297 25.918 160.218 28.067 161.185 27.515 159.712 25.673 159.712 25.642 162.029 25.918" class="color0bceb2 svgShape"></polygon><polygon fill="#87c5d6" points="80.002 5.898 81.259 4.244 80.465 3.794 79.658 5.647 79.631 5.647 78.81 3.807 78.002 4.27 79.247 5.885 79.247 5.912 77.3 5.66 77.3 6.56 79.26 6.309 79.26 6.335 78.002 7.95 78.757 8.427 79.618 6.56 79.644 6.56 80.438 8.414 81.272 7.937 80.002 6.348 80.002 6.322 82 6.56 82 5.66 80.002 5.925 80.002 5.898" class="color0bceb2 svgShape"></polygon></svg></g></svg>