<svg xmlns="http://www.w3.org/2000/svg" width="64" height="64"><path d="M 21 0 C 9.407943 0 0 9.408 0 21 C 0 32.5921 9.407943 42 21 42 C 32.592057 42 42 32.5921 42 21 C 42 9.408 32.592057 0 21 0 z M 21 1 C 32.051617 1 41 9.9484 41 21 C 41 32.0516 32.051617 41 21 41 C 9.948383 41 1 32.0516 1 21 C 1 9.9484 9.948383 1 21 1 z M 11.900391 12.988281 A 0.50005 0.50005 0 0 0 11.84375 12.994141 A 0.50005 0.50005 0 0 0 11.5 13.494141 L 11.5 26.494141 A 0.50005 0.50005 0 0 0 12 26.994141 L 18.53125 26.994141 L 18.53125 28.994141 L 16.5 28.994141 A 0.50005 0.50005 0 0 0 16.34375 28.994141 A 0.50606671 0.50606671 0 1 0 16.5 29.994141 L 25.5 29.994141 A 0.50005 0.50005 0 1 0 25.5 28.994141 L 23.5 28.994141 L 23.5 26.994141 L 30 26.994141 A 0.50005 0.50005 0 0 0 30.5 26.494141 L 30.5 13.494141 A 0.50005 0.50005 0 0 0 30 12.994141 L 12 12.994141 A 0.50005 0.50005 0 0 0 11.900391 12.988281 z M 12.5 13.994141 L 29.5 13.994141 L 29.5 25.994141 L 12.5 25.994141 L 12.5 13.994141 z M 24.972656 14.96875 A 0.50005 0.50005 0 0 0 24.84375 14.994141 A 0.50005 0.50005 0 0 0 24.5 15.400391 L 23.5625 20.994141 L 22.5 20.994141 A 0.50005 0.50005 0 0 0 22.0625 21.275391 L 21.1875 23.056641 L 19.5 16.369141 A 0.50005 0.50005 0 0 0 18.53125 16.369141 L 16.9375 22.681641 L 16.5 21.337891 A 0.50005 0.50005 0 0 0 16.03125 20.994141 L 14.03125 20.994141 A 0.50005 0.50005 0 1 0 14.03125 21.994141 L 15.65625 21.994141 L 16.53125 24.650391 A 0.50005 0.50005 0 0 0 17.5 24.587891 L 19 18.525391 L 20.53125 24.587891 A 0.50005 0.50005 0 0 0 21.46875 24.712891 L 22.8125 21.994141 L 24 21.994141 A 0.50005 0.50005 0 0 0 24.5 21.556641 L 25 18.556641 L 25.5 21.556641 A 0.50005 0.50005 0 0 0 26 21.994141 L 28 21.994141 A 0.50005 0.50005 0 1 0 28 20.994141 L 26.4375 20.994141 L 25.5 15.400391 A 0.50005 0.50005 0 0 0 24.972656 14.96875 z M 19.53125 26.994141 L 22.5 26.994141 L 22.5 28.962891 L 19.53125 28.962891 L 19.53125 26.994141 z " color="#000" font-family="Sans" font-weight="400" overflow="visible" style="line-height:normal;-inkscape-font-specification:Sans;text-indent:0;text-align:start;text-decoration-line:none;text-transform:none;block-progression:tb;marker:none"/></svg>