<?xml version="1.0" encoding="UTF-8"?><svg xmlns="http://www.w3.org/2000/svg" xmlns:xlink="http://www.w3.org/1999/xlink" version="1.1" x="0px" y="0px" viewBox="0 0 50 50" xml:space="preserve"><path d="M42 7h-9V1H17v6H8v11H1v14h7v11h9v6h16v-6h9V32h7V18h-7V7zM19 3h12v10H19V3zM3 20h12v10H3V20zm28 27H19V37h12v10zm9-6h-7v-6H17v6h-7v-9h7V18h-7V9h7v6h16V9h7v9h-7v14h7v9zm7-11H35V20h12v10z" id="Layer_1"/><metadata><rdf:RDF xmlns:rdf="http://www.w3.org/1999/02/22-rdf-syntax-ns#" xmlns:rdfs="http://www.w3.org/2000/01/rdf-schema#" xmlns:dc="http://purl.org/dc/elements/1.1/"><rdf:Description about="https://iconscout.com/legal#licenses" dc:title="network-connection-relationship-matrix-system" dc:description="network-connection-relationship-matrix-system" dc:publisher="Iconscout" dc:date="2018-05-24" dc:format="image/svg+xml" dc:language="en"><dc:creator><rdf:Bag><rdf:li>Becris .</rdf:li></rdf:Bag></dc:creator></rdf:Description></rdf:RDF></metadata></svg>