<?xml version="1.0" encoding="UTF-8" standalone="no"?>
<svg xmlns:dc="http://purl.org/dc/elements/1.1/" xmlns:cc="http://creativecommons.org/ns#" xmlns:rdf="http://www.w3.org/1999/02/22-rdf-syntax-ns#" xmlns:svg="http://www.w3.org/2000/svg" xmlns="http://www.w3.org/2000/svg" xmlns:sodipodi="http://sodipodi.sourceforge.net/DTD/sodipodi-0.dtd" xmlns:inkscape="http://www.inkscape.org/namespaces/inkscape" version="1.1" id="Layer_1" x="0px" y="0px" viewBox="0 0 16 16" style="enable-background:new 0 0 16 16;" xml:space="preserve" inkscape:version="0.91 r13725" sodipodi:docname="!6x16 thin Line-21.svg"><defs id="defs17"/><sodipodi:namedview pagecolor="#ffffff" bordercolor="#666666" borderopacity="1" objecttolerance="10" gridtolerance="10" guidetolerance="10" inkscape:pageopacity="0" inkscape:pageshadow="2" inkscape:window-width="1366" inkscape:window-height="705" id="namedview15" showgrid="true" inkscape:snap-bbox="true" inkscape:bbox-paths="true" inkscape:bbox-nodes="true" inkscape:snap-bbox-edge-midpoints="true" inkscape:snap-bbox-midpoints="true" inkscape:zoom="14.75" inkscape:cx="0.92282804" inkscape:cy="8.2461141" inkscape:window-x="-8" inkscape:window-y="-8" inkscape:window-maximized="1" inkscape:current-layer="Layer_1"><inkscape:grid type="xygrid" id="grid4147"/></sodipodi:namedview><style type="text/css" id="style3">
	.st0{fill:#231F20;}
	.st1{fill:none;stroke:#231F20;stroke-width:0.5;stroke-miterlimit:10;}
</style><path style="fill:#231f20;stroke:none" d="M 7.8496094 0.52148438 C 7.1604627 0.52148438 6.5996094 1.0833208 6.5996094 1.7714844 C 6.5996094 2.4596479 7.1604627 3.0214844 7.8496094 3.0214844 C 8.5387561 3.0214844 9.0996094 2.460631 9.0996094 1.7714844 C 9.0996094 1.0823377 8.5387561 0.52148438 7.8496094 0.52148438 z M 11.621094 0.52148438 C 10.931947 0.52148438 10.371094 1.0823377 10.371094 1.7714844 C 10.371094 2.460631 10.931947 3.0214844 11.621094 3.0214844 C 12.310241 3.0214844 12.871094 2.460631 12.871094 1.7714844 C 12.871094 1.0823377 12.310241 0.52148438 11.621094 0.52148438 z M 3.8007812 0.5234375 C 3.1116345 0.5234375 2.5527344 1.0842909 2.5527344 1.7734375 C 2.5527344 2.4625842 3.1116346 3.0214844 3.8007812 3.0214844 C 4.4899279 3.0214844 5.0507812 2.4625842 5.0507812 1.7734375 C 5.0507812 1.0842909 4.4899278 0.5234375 3.8007812 0.5234375 z M 3.8007812 1.0136719 C 4.2185949 1.0136719 4.5585938 1.3536707 4.5585938 1.7714844 C 4.5585938 2.1902811 4.219578 2.5292969 3.8007812 2.5292969 C 3.3829676 2.5292969 3.0429687 2.189298 3.0429688 1.7714844 C 3.0429688 1.3536707 3.3829676 1.0136719 3.8007812 1.0136719 z M 7.8496094 1.0136719 C 8.267423 1.0136719 8.6074219 1.3536707 8.6074219 1.7714844 C 8.6074219 2.189298 8.267423 2.5292969 7.8496094 2.5292969 C 7.4317958 2.5292969 7.0917969 2.1902811 7.0917969 1.7714844 C 7.0917969 1.3536707 7.4317958 1.0136719 7.8496094 1.0136719 z M 11.621094 1.0136719 C 12.038908 1.0136719 12.378906 1.3536707 12.378906 1.7714844 C 12.378906 2.189298 12.038908 2.5292969 11.621094 2.5292969 C 11.20328 2.5292969 10.863281 2.1902811 10.863281 1.7714844 C 10.863281 1.3536707 11.20328 1.0136719 11.621094 1.0136719 z M 3.609375 4.25 L 3.609375 6 L 7.609375 6 L 7.609375 7.5 L 5.703125 7.5 C 5.099125 7.5 4.609375 7.9917031 4.609375 8.5957031 L 4.609375 11.90625 C 4.609375 12.51025 5.099125 13 5.703125 13 L 7.609375 13 L 7.609375 14.5 L 6.359375 14.5 L 6.359375 15 L 9.359375 15 L 9.359375 14.5 L 8.109375 14.5 L 8.109375 13 L 10.015625 13 C 10.619625 13 11.109375 12.50925 11.109375 11.90625 L 11.109375 8.5957031 C 11.109375 7.9917031 10.618625 7.5 10.015625 7.5 L 8.109375 7.5 L 8.109375 6 L 12.109375 6 L 12.109375 4.25 L 11.609375 4.25 L 11.609375 5.5 L 8.109375 5.5 L 8.109375 4.25 L 7.609375 4.25 L 7.609375 5.5 L 4.109375 5.5 L 4.109375 4.25 L 3.609375 4.25 z M 5.703125 8 L 10.015625 8 C 10.343625 8 10.609375 8.2677031 10.609375 8.5957031 L 10.609375 11.90625 C 10.609375 12.23425 10.342625 12.5 10.015625 12.5 L 5.703125 12.5 C 5.375125 12.5 5.109375 12.23325 5.109375 11.90625 L 5.109375 8.5957031 C 5.109375 8.2677031 5.375125 8 5.703125 8 z " id="path7"/>
	<metadata>
		<rdf:RDF xmlns:rdf="http://www.w3.org/1999/02/22-rdf-syntax-ns#" xmlns:rdfs="http://www.w3.org/2000/01/rdf-schema#" xmlns:dc="http://purl.org/dc/elements/1.1/">
			<rdf:Description about="https://admin.iconscout.com/legal#licenses" dc:title="21 computer connection chain  hierarchy  file sharing transfer data" dc:description="21 computer connection chain  hierarchy  file sharing transfer data" dc:publisher="Iconscout" dc:date="2017-04-23" dc:format="image/svg+xml" dc:language="en">
				<dc:creator>
					<rdf:Bag>
						<rdf:li>Dalpat Prajapati</rdf:li>
					</rdf:Bag>
				</dc:creator>
			</rdf:Description>
		</rdf:RDF>
    </metadata></svg>
