<svg id="Layer_3" enable-background="new 0 0 64 64" height="512" viewBox="0 0 64 64" width="512" xmlns="http://www.w3.org/2000/svg"><path d="m5 35h28v-12h-28zm2-10h24v8h-24z"/><path d="m25 59h8v-14h-8zm2-12h4v10h-4z"/><path d="m15 59h8v-6h-8zm2-4h4v2h-4z"/><path d="m5 59h8v-6h-8zm2-4h4v2h-4z"/><path d="m15 51h8v-6h-8zm2-4h4v2h-4z"/><path d="m5 51h8v-6h-8zm2-4h4v2h-4z"/><path d="m15 43h8v-6h-8zm2-4h4v2h-4z"/><path d="m25 43h8v-6h-8zm2-4h4v2h-4z"/><path d="m5 43h8v-6h-8zm2-4h4v2h-4z"/><path d="m44 23c1.654 0 3 1.346 3 3h2c0-2.414-1.721-4.434-4-4.899v-2.101h-2v2h-4v5c0 2.757 2.243 5 5 5 1.654 0 3 1.346 3 3v3h-3c-1.654 0-3-1.346-3-3h-2c0 2.414 1.721 4.434 4 4.899v2.101h2v-2h4v-5c0-2.757-2.243-5-5-5-1.654 0-3-1.346-3-3v-3z"/><path d="m53.731 13.833 1.363-1.169c3.118-2.671 4.906-6.558 4.906-10.664v-1h-1c-2.309 0-3.513 1.284-4.48 2.316-.882.941-1.58 1.684-3.022 1.684s-2.14-.743-3.021-1.684c-.968-1.032-2.172-2.316-4.481-2.316-2.308 0-3.511 1.284-4.478 2.316-.881.941-1.578 1.684-3.019 1.684s-2.138-.743-3.02-1.684c-.966-1.032-2.17-2.316-4.479-2.316h-1v1c0 4.106 1.788 7.993 4.904 10.663l1.366 1.171c-2.185 1.34-4.098 3.101-5.613 5.166h-22.657c-2.757 0-5 2.243-5 5v34c0 2.757 2.243 5 5 5h26c2.757 0 5-2.243 5-5v-10.339c2.222.884 4.568 1.339 7 1.339 10.477 0 19-8.523 19-19 0-6.488-3.596-12.684-9.269-16.167zm-23.675-10.67c.791.269 1.33.844 1.965 1.521.966 1.032 2.17 2.316 4.478 2.316s3.512-1.284 4.479-2.316c.881-.941 1.578-1.684 3.018-1.684 1.442 0 2.14.743 3.021 1.684.968 1.032 2.172 2.316 4.481 2.316s3.513-1.284 4.48-2.316c.636-.677 1.175-1.252 1.966-1.521-.298 3.085-1.773 5.946-4.151 7.983l-2.163 1.854h-15.26l-2.164-1.855c-2.377-2.037-3.852-4.898-4.15-7.982zm4.944 54.837c0 1.654-1.346 3-3 3h-26c-1.654 0-3-1.346-3-3v-34c0-1.654 1.346-3 3-3h26c1.654 0 3 1.346 3 3zm9-11c-2.449 0-4.797-.53-7-1.53v-21.47c0-2.757-2.243-5-5-5h-.785c1.418-1.62 3.124-2.985 5.031-4h15.508c5.625 2.994 9.246 8.855 9.246 15 0 9.374-7.626 17-17 17z"/><path d="m53.192 39.192c-.365.365-.752.709-1.149 1.022l1.238 1.57c.459-.361.905-.758 1.324-1.178.312-.311.605-.633.884-.964l-1.529-1.287c-.241.288-.496.567-.768.837z"/><path d="m54.616 19.403-.121-.12-1.395 1.434.092.091c4.464 4.463 5.086 11.452 1.479 16.62l1.641 1.145c4.162-5.965 3.445-14.03-1.696-19.17z"/><path d="m27 29h2v2h-2z"/><path d="m23 29h2v2h-2z"/><path d="m19 29h2v2h-2z"/></svg>