<?xml version="1.0" encoding="UTF-8"?><svg xmlns="http://www.w3.org/2000/svg" xmlns:xlink="http://www.w3.org/1999/xlink" id="Слой_1" version="1.1" viewBox="0 0 40 40" xml:space="preserve"><path d="M7.2 40c-.6 0-1-.4-1-1V17.6c0-.6.4-1 1-1s1 .4 1 1V39c0 .6-.5 1-1 1z"/><path d="M8.2 5.6V1c0-.6-.5-1-1-1-.6 0-1 .4-1 1v4.6c-2 .5-3.5 2.3-3.5 4.4 0 2.5 2 4.5 4.5 4.5s4.5-2 4.5-4.5c0-2.1-1.5-3.9-3.5-4.4zm-1 6.9c-1.4 0-2.5-1.1-2.5-2.5s1.1-2.5 2.5-2.5S9.7 8.6 9.7 10s-1.1 2.5-2.5 2.5z"/><path d="M34.2 10.6V1c0-.6-.5-1-1-1-.6 0-1 .4-1 1v9.6c-2 .5-3.5 2.3-3.5 4.4 0 2.5 2 4.5 4.5 4.5s4.5-2 4.5-4.5c0-2.1-1.5-3.9-3.5-4.4zm-1 6.9c-1.4 0-2.5-1.1-2.5-2.5s1.1-2.5 2.5-2.5 2.5 1.1 2.5 2.5-1.1 2.5-2.5 2.5z"/><path d="M33.2 40c-.6 0-1-.4-1-1V22.7c0-.6.4-1 1-1s1 .4 1 1V39c0 .6-.5 1-1 1z"/><path d="M20.2 25.5c-2.5 0-4.5 2-4.5 4.5 0 2.1 1.5 3.9 3.5 4.4V39c0 .6.4 1 1 1 .5 0 1-.4 1-1v-4.6c2-.5 3.5-2.3 3.5-4.4 0-2.5-2-4.5-4.5-4.5zm0 7c-1.4 0-2.5-1.1-2.5-2.5s1.1-2.5 2.5-2.5 2.5 1.1 2.5 2.5-1.1 2.5-2.5 2.5z"/><path d="M20.2 23.7c-.6 0-1-.4-1-1V1c0-.6.4-1 1-1s1 .4 1 1v21.7c0 .5-.5 1-1 1z"/><metadata><rdf:RDF xmlns:rdf="http://www.w3.org/1999/02/22-rdf-syntax-ns#" xmlns:rdfs="http://www.w3.org/2000/01/rdf-schema#" xmlns:dc="http://purl.org/dc/elements/1.1/"><rdf:Description about="https://iconscout.com/legal#licenses" dc:title="preferences,settings,setu" dc:description="preferences,settings,setu" dc:publisher="Iconscout" dc:date="2017-09-26" dc:format="image/svg+xml" dc:language="en"><dc:creator><rdf:Bag><rdf:li>The Eyecons</rdf:li></rdf:Bag></dc:creator></rdf:Description></rdf:RDF></metadata></svg>