<svg xmlns="http://www.w3.org/2000/svg" viewBox="0 0 109 109" width="1000" height="1000">
	<style>
		tspan { white-space:pre }
		.shp0 { fill: #ffffff } 
		.shp1 { fill: #aa7dc9;stroke: #aa7dc9;stroke-width: 0.7 } 
		.shp2 { fill: #674182;stroke: #674182;stroke-width: 0.7 } 
	</style>
	<path id="Layer 4" class="shp0" d="M0 0L109 0L109 109L0 109L0 0Z" />
	<path id="Layer 1" class="shp1" d="M80 7L15 7L26 26L58 26L52 36L31 36L34 41L56 41L67 21L29 21L24 12L77 12L80 7Z" />
	<path id="Layer 2" class="shp2" d="M88 7L94 7L55 75L54 75L39 48L45 48L54 65L55 65L88 7Z" />
	<path id="VSCOUT " fill="#674182" aria-label="VSCOUT"  d="M17.75 101L15.29 101L9.17 84.96L11.44 84.96L16.52 98.46L21.61 84.96L23.87 84.96L17.75 101ZM35.82 85.49L35.82 87.6Q34.59 87.01 33.49 86.72Q32.4 86.43 31.38 86.43Q29.6 86.43 28.64 87.12Q27.68 87.81 27.68 89.08Q27.68 90.14 28.31 90.69Q28.96 91.22 30.74 91.56L32.05 91.83Q34.48 92.29 35.63 93.46Q36.79 94.62 36.79 96.57Q36.79 98.91 35.22 100.11Q33.66 101.31 30.65 101.31Q29.51 101.31 28.22 101.05Q26.94 100.8 25.56 100.29L25.56 98.06Q26.89 98.8 28.15 99.17Q29.42 99.55 30.65 99.55Q32.5 99.55 33.51 98.82Q34.52 98.09 34.52 96.74Q34.52 95.55 33.79 94.89Q33.07 94.22 31.42 93.89L30.1 93.63Q27.67 93.15 26.58 92.12Q25.5 91.08 25.5 89.25Q25.5 87.12 26.99 85.9Q28.5 84.67 31.13 84.67Q32.26 84.67 33.43 84.88Q34.6 85.08 35.82 85.49ZM52.18 86.2L52.18 88.49Q51.09 87.46 49.84 86.96Q48.61 86.46 47.21 86.46Q44.46 86.46 43 88.14Q41.54 89.82 41.54 93Q41.54 96.17 43 97.85Q44.46 99.53 47.21 99.53Q48.61 99.53 49.84 99.02Q51.09 98.52 52.18 97.5L52.18 99.76Q51.04 100.54 49.77 100.92Q48.5 101.31 47.08 101.31Q43.44 101.31 41.34 99.09Q39.25 96.85 39.25 93Q39.25 89.13 41.34 86.91Q43.44 84.67 47.08 84.67Q48.52 84.67 49.79 85.06Q51.07 85.43 52.18 86.2ZM62.04 86.43Q59.68 86.43 58.29 88.2Q56.9 89.96 56.9 93Q56.9 96.03 58.29 97.79Q59.68 99.55 62.04 99.55Q64.41 99.55 65.78 97.79Q67.17 96.03 67.17 93Q67.17 89.96 65.78 88.2Q64.41 86.43 62.04 86.43ZM62.04 84.67Q65.42 84.67 67.44 86.94Q69.46 89.19 69.46 93Q69.46 96.79 67.44 99.06Q65.42 101.31 62.04 101.31Q58.66 101.31 56.63 99.06Q54.61 96.8 54.61 93Q54.61 89.19 56.63 86.94Q58.66 84.67 62.04 84.67ZM72.6 94.97L72.6 84.96L74.79 84.96L74.79 94.71Q74.79 97.28 75.72 98.42Q76.65 99.55 78.75 99.55Q80.83 99.55 81.77 98.42Q82.7 97.28 82.7 94.71L82.7 84.96L84.88 84.96L84.88 94.97Q84.88 98.11 83.33 99.71Q81.78 101.31 78.75 101.31Q75.71 101.31 74.15 99.71Q72.6 98.11 72.6 94.97ZM86.73 86.79L86.73 84.96L100.3 84.96L100.3 86.79L94.6 86.79L94.6 101L92.42 101L92.42 86.79L86.73 86.79Z" />
</svg>