<svg xmlns="http://www.w3.org/2000/svg" viewBox="0 0 109 109" width="1000" height="1000">
	<style>
		tspan { white-space:pre }
		.shp0 { fill: #ffffff } 
		.shp1 { fill: #aa7dc9;stroke: #aa7dc9;stroke-width: 0.7 } 
		.shp2 { fill: #674182;stroke: #674182;stroke-width: 0.7 } 
	</style>
	<path id="Layer 4" class="shp0" d="M0 0L109 0L109 109L0 109L0 0Z" />
	<path id="Layer 1" class="shp1" d="M80 7L15 7L26 26L58 26L52 36L31 36L34 41L56 41L67 21L29 21L24 12L77 12L80 7Z" />
	<path id="Layer 2" class="shp2" d="M88 7L94 7L55 75L54 75L39 48L45 48L54 65L55 65L88 7Z" />
	<path id="VSCOUT " fill="#674182" aria-label="VSCOUT"  d="M18.75 95L16.29 95L10.17 78.96L12.44 78.96L17.52 92.46L22.61 78.96L24.87 78.96L18.75 95ZM36.82 79.49L36.82 81.6Q35.59 81.01 34.49 80.72Q33.4 80.43 32.38 80.43Q30.6 80.43 29.64 81.12Q28.68 81.81 28.68 83.08Q28.68 84.14 29.31 84.69Q29.96 85.22 31.74 85.56L33.05 85.83Q35.48 86.29 36.63 87.46Q37.79 88.62 37.79 90.57Q37.79 92.91 36.22 94.11Q34.66 95.31 31.65 95.31Q30.51 95.31 29.22 95.05Q27.94 94.8 26.56 94.29L26.56 92.06Q27.89 92.8 29.15 93.17Q30.42 93.55 31.65 93.55Q33.5 93.55 34.51 92.82Q35.52 92.09 35.52 90.74Q35.52 89.55 34.79 88.89Q34.07 88.22 32.42 87.89L31.1 87.63Q28.67 87.15 27.58 86.12Q26.5 85.08 26.5 83.25Q26.5 81.12 27.99 79.9Q29.5 78.67 32.13 78.67Q33.26 78.67 34.43 78.88Q35.6 79.08 36.82 79.49ZM53.18 80.2L53.18 82.49Q52.09 81.46 50.84 80.96Q49.61 80.46 48.21 80.46Q45.46 80.46 44 82.14Q42.54 83.82 42.54 87Q42.54 90.17 44 91.85Q45.46 93.53 48.21 93.53Q49.61 93.53 50.84 93.02Q52.09 92.52 53.18 91.5L53.18 93.76Q52.04 94.54 50.77 94.92Q49.5 95.31 48.08 95.31Q44.44 95.31 42.34 93.09Q40.25 90.85 40.25 87Q40.25 83.13 42.34 80.91Q44.44 78.67 48.08 78.67Q49.52 78.67 50.79 79.06Q52.07 79.43 53.18 80.2ZM63.04 80.43Q60.68 80.43 59.29 82.2Q57.9 83.96 57.9 87Q57.9 90.03 59.29 91.79Q60.68 93.55 63.04 93.55Q65.41 93.55 66.78 91.79Q68.17 90.03 68.17 87Q68.17 83.96 66.78 82.2Q65.41 80.43 63.04 80.43ZM63.04 78.67Q66.42 78.67 68.44 80.94Q70.46 83.19 70.46 87Q70.46 90.79 68.44 93.06Q66.42 95.31 63.04 95.31Q59.66 95.31 57.63 93.06Q55.61 90.8 55.61 87Q55.61 83.19 57.63 80.94Q59.66 78.67 63.04 78.67ZM73.6 88.97L73.6 78.96L75.79 78.96L75.79 88.71Q75.79 91.28 76.72 92.42Q77.65 93.55 79.75 93.55Q81.83 93.55 82.77 92.42Q83.7 91.28 83.7 88.71L83.7 78.96L85.88 78.96L85.88 88.97Q85.88 92.11 84.33 93.71Q82.78 95.31 79.75 95.31Q76.71 95.31 75.15 93.71Q73.6 92.11 73.6 88.97ZM87.73 80.79L87.73 78.96L101.3 78.96L101.3 80.79L95.6 80.79L95.6 95L93.42 95L93.42 80.79L87.73 80.79Z" />
</svg>