<svg id="SvgjsSvg1045" width="288" height="288" xmlns="http://www.w3.org/2000/svg" version="1.1" xmlns:xlink="http://www.w3.org/1999/xlink" xmlns:svgjs="http://svgjs.com/svgjs"><defs id="SvgjsDefs1046"></defs><g id="SvgjsG1047" transform="matrix(0.9167,0,0,0.9167,11.995197934532172,11.99521128063202)"><svg xmlns="http://www.w3.org/2000/svg" data-name="Layer 1" viewBox="0 0 512 512" width="288" height="288"><g data-name="&amp;lt;Group&amp;gt;" fill="#5d5d5a" class="color000 svgShape"><path d="M473.561,101.512,258.4,32.106a7.927,7.927,0,0,0-4.884,0L38.426,101.512A7.894,7.894,0,0,0,33,109.126V402.874a7.906,7.906,0,0,0,5.439,7.614L253.6,479.894a7.842,7.842,0,0,0,2.428.386,7.925,7.925,0,0,0,2.442-.386l215.1-69.406A7.9,7.9,0,0,0,479,402.874V109.126A7.906,7.906,0,0,0,473.561,101.512ZM256,48.126l189.147,61L256,170.126l-189.147-61ZM463,391.888,263,327.32V184.68l200-64.568ZM49,120.112l198,63.923v143.93L49,391.888ZM247,344.777V460.971l-180.147-58.1Zm16,116.84V344.132l182.147,58.742Z" data-name="&amp;lt;Compound Path&amp;gt;" fill="#5d5d5a" class="color000 svgShape"></path></g></svg></g></svg>