<svg id="SvgjsSvg1011" width="288" height="288" xmlns="http://www.w3.org/2000/svg" version="1.1" xmlns:xlink="http://www.w3.org/1999/xlink" xmlns:svgjs="http://svgjs.com/svgjs"><defs id="SvgjsDefs1012"></defs><g id="SvgjsG1013" transform="matrix(0.9167,0,0,0.9167,11.995575572556277,11.995200605738177)"><svg xmlns="http://www.w3.org/2000/svg" data-name="Layer 1" viewBox="0 0 32 32" width="288" height="288"><path d="M29.99,22.3a3.216,3.216,0,0,1-2.062-1.128l-.006-.007a13.158,13.158,0,0,0,.516-1.408,8.205,8.205,0,0,0,1.772-1.515,8.324,8.324,0,0,0,1.729-3.183.5.5,0,0,0-.675-.6,3.2,3.2,0,0,1-2.35.055h0a12.941,12.941,0,0,0-.265-1.474,8.2,8.2,0,0,0,.687-5.823.5.5,0,0,0-.884-.182,3.207,3.207,0,0,1-2.009,1.223h-.01A13.2,13.2,0,0,0,25.47,7.1a8.232,8.232,0,0,0-.427-2.291,8.325,8.325,0,0,0-1.892-3.089.5.5,0,0,0-.855.286,3.2,3.2,0,0,1-1.128,2.063l-.008.006a12.96,12.96,0,0,0-1.406-.516,8.217,8.217,0,0,0-1.516-1.772A8.327,8.327,0,0,0,15.056.061a.5.5,0,0,0-.6.675,3.208,3.208,0,0,1,.055,2.351l0,0a12.864,12.864,0,0,0-1.473.264,8.183,8.183,0,0,0-2.2-.779,8.306,8.306,0,0,0-3.621.094.5.5,0,0,0-.18.884A3.2,3.2,0,0,1,8.254,5.561l0,.01a13.1,13.1,0,0,0-1.15.959,8.222,8.222,0,0,0-2.293.427A8.334,8.334,0,0,0,1.725,8.849.5.5,0,0,0,2.01,9.7a3.2,3.2,0,0,1,2.062,1.126l.007.008a13.158,13.158,0,0,0-.516,1.408A8.205,8.205,0,0,0,1.79,13.762,8.324,8.324,0,0,0,.062,16.945a.5.5,0,0,0,.675.6,3.193,3.193,0,0,1,2.35-.055h0a12.941,12.941,0,0,0,.265,1.474,8.2,8.2,0,0,0-.687,5.823.5.5,0,0,0,.385.369.507.507,0,0,0,.5-.187,3.207,3.207,0,0,1,2.009-1.223h.01A13.2,13.2,0,0,0,6.53,24.9a8.232,8.232,0,0,0,.427,2.291,8.329,8.329,0,0,0,1.892,3.089A.5.5,0,0,0,9.7,29.99a3.2,3.2,0,0,1,1.128-2.062l.008-.006a12.96,12.96,0,0,0,1.406.516,8.217,8.217,0,0,0,1.516,1.772,8.327,8.327,0,0,0,3.183,1.729.5.5,0,0,0,.6-.675,3.208,3.208,0,0,1-.055-2.351l0,0a12.864,12.864,0,0,0,1.473-.264,8.183,8.183,0,0,0,2.2.779,8.321,8.321,0,0,0,3.621-.094.5.5,0,0,0,.18-.884,3.2,3.2,0,0,1-1.222-2.008v-.01a13.042,13.042,0,0,0,1.15-.959,8.2,8.2,0,0,0,5.381-2.317.5.5,0,0,0-.285-.856Zm-3.125,1.8a7.181,7.181,0,0,1-2.083.377l-.014,0a.5.5,0,0,0-.418.136,12.148,12.148,0,0,1-1.411,1.17.692.692,0,0,0-.206.526,2.565,2.565,0,0,0,.024.294,4.079,4.079,0,0,0,.871,1.932,7.29,7.29,0,0,1-2.268-.085,7.211,7.211,0,0,1-1.979-.708l-.025-.021a.5.5,0,0,0-.43-.09,11.847,11.847,0,0,1-1.809.319.684.684,0,0,0-.439.347,2.311,2.311,0,0,0-.125.267,4.091,4.091,0,0,0-.212,2.109,7.265,7.265,0,0,1-1.921-1.208,7.172,7.172,0,0,1-1.368-1.614h0a.5.5,0,0,0-.332-.308A12.069,12.069,0,0,1,11,26.9a.659.659,0,0,0-.56.086,2.3,2.3,0,0,0-.24.166,4.072,4.072,0,0,0-1.236,1.72,7.176,7.176,0,0,1-1.438-4.093l0-.027a.5.5,0,0,0-.139-.4,12.282,12.282,0,0,1-1.17-1.411.676.676,0,0,0-.526-.206,2.354,2.354,0,0,0-.293.024,4.086,4.086,0,0,0-1.933.873,7.175,7.175,0,0,1,.795-4.249l.021-.024a.5.5,0,0,0,.091-.43,11.686,11.686,0,0,1-.319-1.809.669.669,0,0,0-.355-.443,2.328,2.328,0,0,0-.258-.122,4.066,4.066,0,0,0-2.108-.21,7.162,7.162,0,0,1,2.822-3.29.5.5,0,0,0,.309-.333A11.9,11.9,0,0,1,5.1,11a.691.691,0,0,0-.082-.556,2.469,2.469,0,0,0-.17-.246,4.084,4.084,0,0,0-1.72-1.237,7.166,7.166,0,0,1,4.09-1.437l.03,0a.5.5,0,0,0,.4-.138,12.144,12.144,0,0,1,1.412-1.17A.7.7,0,0,0,9.267,5.7,2.583,2.583,0,0,0,9.242,5.4a4.079,4.079,0,0,0-.871-1.932,7.165,7.165,0,0,1,4.246.793l.025.021a.507.507,0,0,0,.43.09,11.847,11.847,0,0,1,1.809-.319.684.684,0,0,0,.439-.347,2.311,2.311,0,0,0,.125-.267,4.091,4.091,0,0,0,.212-2.109,7.19,7.19,0,0,1,3.291,2.825.5.5,0,0,0,.331.306A12.069,12.069,0,0,1,21,5.1a.669.669,0,0,0,.56-.086,2.3,2.3,0,0,0,.24-.166,4.072,4.072,0,0,0,1.236-1.72,7.176,7.176,0,0,1,1.438,4.093l0,.027a.5.5,0,0,0,.139.4,12.282,12.282,0,0,1,1.17,1.411.678.678,0,0,0,.526.206,2.354,2.354,0,0,0,.293-.024,4.086,4.086,0,0,0,1.933-.873,7.175,7.175,0,0,1-.795,4.249l-.021.024a.5.5,0,0,0-.091.43,11.686,11.686,0,0,1,.319,1.809.669.669,0,0,0,.355.443,2.328,2.328,0,0,0,.258.122,4.089,4.089,0,0,0,2.108.21,7.162,7.162,0,0,1-2.822,3.29.5.5,0,0,0-.309.333A11.9,11.9,0,0,1,26.9,21a.684.684,0,0,0,.08.553,2.424,2.424,0,0,0,.17.247h0a4.075,4.075,0,0,0,1.723,1.237A7.151,7.151,0,0,1,26.865,24.1ZM16,6A10,10,0,1,0,26,16,10.011,10.011,0,0,0,16,6Zm0,19a9,9,0,1,1,9-9A9.01,9.01,0,0,1,16,25Zm0-13a4,4,0,1,0,4,4A4,4,0,0,0,16,12Zm0,7a3,3,0,1,1,3-3A3,3,0,0,1,16,19Z" fill="#5d5d5a" class="color000 svgShape"></path></svg></g></svg>