<svg id="SvgjsSvg1001" width="288" height="288" xmlns="http://www.w3.org/2000/svg" version="1.1" xmlns:xlink="http://www.w3.org/1999/xlink" xmlns:svgjs="http://svgjs.com/svgjs"><defs id="SvgjsDefs1002"></defs><g id="SvgjsG1008" transform="matrix(0.9167,0,0,0.9167,11.995196822357173,12.001952395419778)"><svg xmlns="http://www.w3.org/2000/svg" width="288" height="288" viewBox="0 0 32 32.002"><path d="M18.28 31.718a.992.992 0 0 0 .71.292.997.997 0 0 0 .71-.292l3.852-3.852a1 1 0 0 0-1.414-1.414L20 28.59V11.01a1 1 0 0 0-2 0v17.6l-2.304-2.304a1 1 0 0 0-1.414 1.414l3.998 3.998zM13 22.01a1 1 0 0 0 1-1V3.41l2.304 2.304A1 1 0 0 0 17.718 4.3L13.72.302a.997.997 0 0 0-.71-.292.997.997 0 0 0-.71.292L8.448 4.154a1 1 0 0 0 1.414 1.414L12 3.43v17.58a1 1 0 0 0 1 1z" fill="#5d5d5a" class="color000 svgShape"></path></svg></g></svg>