<svg height="512pt" viewBox="-17 0 512 512.0134" width="512pt" xmlns="http://www.w3.org/2000/svg"><path d="m85.339844 119.480469c1.144531 0 2.296875 0 3.414062-.09375 7.285156-.425781 14.425782-2.203125 21.058594-5.25 10.449219 19.089843 30.480469 30.953125 52.242188 30.941406 1.1875 0 2.378906 0 3.574218-.109375 20.5-1.164062 38.949219-12.820312 48.804688-30.832031 7.644531 3.511719 15.957031 5.332031 24.371094 5.34375 1.195312 0 2.386718-.035157 3.582031-.101563 7.285156-.425781 14.429687-2.203125 21.0625-5.25 10.441406 19.082032 30.457031 30.945313 52.207031 30.949219 1.183594 0 2.378906 0 3.574219-.109375 15.824219-.878906 30.640625-8.058594 41.140625-19.933594 2.953125-3.332031 5.53125-6.984375 7.679687-10.886718 7.648438 3.5 15.957031 5.320312 24.371094 5.332031 1.191406 0 2.398437 0 3.589844-.101563 28.664062-1.632812 52.109375-23.421875 55.835937-51.886718 3.722656-28.464844-13.324218-55.554688-40.601562-64.507813-27.277344-8.949219-57.0625 2.765625-70.929688 27.902344-15.605468-7.042969-33.480468-7.042969-49.085937 0-10.488281-19.046875-30.511719-30.88281275-52.257813-30.88281275s-41.769531 11.83593775-52.257812 30.88281275c-15.605469-7.042969-33.484375-7.042969-49.089844 0-11.164062-20.085938-32.8125-32.035157-55.757812-30.769531-32.25 1.890624-57.152344 29.074218-56.210938 61.367187.9375 32.289063 27.378906 57.984375 59.683594 57.996094zm304.699218-102.324219c17.238282-1.015625 33.386719 8.457031 40.914063 23.996094 7.523437 15.539062 4.941406 34.082031-6.542969 46.976562-12.640625 14.242188-33.214844 18.332032-50.34375 10.007813 4.664063-21.101563-2.464844-43.074219-18.628906-57.417969-.238281-.214844-.503906-.394531-.742188-.597656 6.851563-13.402344 20.3125-22.148438 35.34375-22.964844zm-76.800781 25.601562c.855469-.050781 1.707031-.078124 2.5625-.078124 23.394531 0 42.457031 18.777343 42.808594 42.167968s-18.136719 42.734375-41.523437 43.4375c-23.382813.699219-43-17.5-44.050782-40.871094-1.050781-23.371093 16.851563-43.257812 40.203125-44.65625zm-76.796875-25.601562c16.808594-.957031 32.601563 8.070312 40.308594 23.039062-14.179688 12.0625-21.832031 30.105469-20.648438 48.683594.203126 3.160156.652344 6.296875 1.347657 9.386719-5.011719 2.441406-10.460938 3.855469-16.027344 4.15625-7.234375.421875-14.453125-1.027344-20.964844-4.207031 4.695313-21.125-2.433593-43.136719-18.621093-57.496094-.238282-.214844-.503907-.394531-.742188-.597656 6.855469-13.40625 20.320312-22.152344 35.355469-22.964844zm-76.800781 25.601562c.851563-.050781 1.707031-.078124 2.558594-.078124 23.394531 0 42.457031 18.777343 42.8125 42.167968.351562 23.390625-18.140625 42.734375-41.523438 43.4375-23.386719.699219-43.003906-17.5-44.054687-40.871094-1.050782-23.371093 16.855468-43.257812 40.207031-44.65625zm-106.171875-11.382812c9.328125-10.492188 23.230469-15.710938 37.160156-13.953125 13.929688 1.753906 26.097656 10.261719 32.53125 22.742187-14.179687 12.058594-21.835937 30.105469-20.652344 48.679688.203126 3.160156.65625 6.300781 1.347657 9.386719-5.003907 2.441406-10.453125 3.855469-16.015625 4.15625-17.253906 1.035156-33.425782-8.441407-40.957032-24-7.53125-15.558594-4.929687-34.121094 6.585938-47.011719zm0 0"/><path d="m25.605469 256.011719h51.203125c0 14.140625 11.460937 25.601562 25.597656 25.601562h34.132812v85.460938l-8.414062-8.40625c-5.554688-5.664063-13.171875-8.835938-21.109375-8.789063-8.65625-.019531-16.894531 3.71875-22.582031 10.242188-10.203125 12.375-9.167969 30.515625 2.375 41.648437l20.019531 20.019531c16.59375 17.222657 31.753906 35.773438 45.328125 55.46875 15.648438 21.753907 40.785156 34.679688 67.582031 34.753907h19.203125c.359375-.046875.714844-.121094 1.066406-.210938.351563.089844.707032.164063 1.066407.210938 45.929687-.050781 83.148437-37.269531 83.199219-83.199219v-91.734375c.039062-11.195313-6.207032-21.464844-16.167969-26.578125-9.957031-5.117188-21.945313-4.210938-31.019531 2.34375-4.316407-7.042969-11.371094-11.96875-19.46875-13.589844-8.101563-1.617187-16.507813.214844-23.199219 5.058594-7.921875-13.019531-24.453125-17.859375-38.144531-11.171875v-11.527344h25.601562c6.316406-.023437 12.398438-2.394531 17.066406-6.65625 4.664063 4.261719 10.746094 6.632813 17.066406 6.65625h119.464844c14.140625 0 25.601563-11.460937 25.601563-25.601562h51.199219c14.136718 0 25.601562-11.460938 25.601562-25.597657v-25.601562c-.042969-37.683594-30.582031-68.222656-68.269531-68.265625h-34.132813c-20.671875.023437-40.214844 9.445313-53.109375 25.601563h-13.246093c-12.894532-16.15625-32.4375-25.578126-53.109376-25.601563h-34.132812c-20.671875.023437-40.210938 9.441406-53.105469 25.601563h-13.261719c-12.890624-16.160157-32.429687-25.578126-53.101562-25.601563h-34.132812c-37.683594.042969-68.2226568 30.582031-68.2656255 68.265625v25.601562c0 14.136719 11.4609375 25.597657 25.5976565 25.597657zm183.46875 51.203125c3.398437-.019532 6.664062 1.324218 9.070312 3.726562 2.40625 2.40625 3.746094 5.671875 3.730469 9.070313v55.46875c0 4.710937 3.820312 8.53125 8.53125 8.53125 4.714844 0 8.535156-3.820313 8.535156-8.53125v-46.933594c0-7.070313 5.730469-12.800781 12.796875-12.800781 7.070313 0 12.800781 5.730468 12.800781 12.800781v46.933594c0 4.710937 3.820313 8.53125 8.535157 8.53125 4.710937 0 8.53125-3.820313 8.53125-8.53125v-38.402344c0-7.066406 5.730469-12.796875 12.800781-12.796875s12.800781 5.730469 12.800781 12.796875v91.734375c-.042969 36.507812-29.625 66.09375-66.132812 66.132812-.359375.050782-.714844.121094-1.066407.214844-.351562-.09375-.707031-.164062-1.066406-.214844h-19.203125c-21.304687-.035156-41.300781-10.296874-53.757812-27.585937-14.097657-20.457031-29.855469-39.71875-47.113281-57.59375l-20.019532-20.019531c-5.152344-4.824219-5.828125-12.757813-1.570312-18.386719 2.363281-2.613281 5.683594-4.160156 9.207031-4.289063 3.519531-.125 6.945313 1.179688 9.492187 3.613282l8.464844 8.464844c4.875 4.90625 12.230469 6.378906 18.621094 3.734374 6.394531-2.640624 10.554688-8.882812 10.542969-15.800781v-131.035156c-.292969-7.054687 4.8125-13.179687 11.804687-14.167969 3.738282-.277344 7.414063 1.085938 10.066406 3.738282 2.402344 2.402343 3.746094 5.664062 3.730469 9.0625v140.800781c0 4.710937 3.820313 8.53125 8.53125 8.53125 4.714844 0 8.535157-3.820313 8.535157-8.53125v-55.46875c0-7.066407 5.730468-12.796875 12.800781-12.796875zm12.800781-42.667969h-25.601562v-29.867187c.03125-7.929688-3.113282-15.539063-8.730469-21.136719-6.125-6.132813-14.605469-9.3125-23.253907-8.730469-16.011718 1.515625-28.128906 15.152344-27.75 31.234375v28.5h-34.132812c-4.710938 0-8.53125-3.820313-8.53125-8.535156v-25.597657c.027344-28.265624 22.933594-51.171874 51.199219-51.199218h34.132812c28.265625.027344 51.171875 22.933594 51.199219 51.199218v25.597657c0 2.265625-.898438 4.433593-2.5 6.035156-1.597656 1.601563-3.769531 2.5-6.03125 2.5zm162.132812-8.535156c0 4.714843-3.820312 8.535156-8.535156 8.535156h-119.464844c-4.714843 0-8.535156-3.820313-8.535156-8.535156v-25.597657c.035156-28.265624 22.9375-51.167968 51.199219-51.199218h34.136719c28.261718.03125 51.164062 22.933594 51.199218 51.199218zm25.597657-102.398438c28.265625.027344 51.171875 22.933594 51.203125 51.199219v25.601562c0 4.710938-3.824219 8.53125-8.535156 8.53125h-51.199219v-8.53125c-.058594-32.78125-23.375-60.910156-55.578125-67.039062 8.714844-6.332031 19.207031-9.75 29.976562-9.761719zm-153.597657 0c10.769532.011719 21.261719 3.429688 29.976563 9.761719-19.960937 3.808594-37.195313 16.289062-47.042969 34.066406-9.847656-17.773437-27.078125-30.257812-47.035156-34.066406 8.707031-6.332031 19.199219-9.75 29.96875-9.761719zm-238.933593 51.199219c.027343-28.265625 22.933593-51.171875 51.199219-51.199219h34.132812c10.769531.011719 21.257812 3.429688 29.96875 9.761719-32.199219 6.128906-55.515625 34.257812-55.566406 67.039062v8.53125h-51.203125c-4.710938 0-8.53125-3.820312-8.53125-8.53125zm0 0"/><path d="m213.339844 477.878906h34.132812c4.714844 0 8.535156-3.820312 8.535156-8.53125 0-4.714844-3.820312-8.535156-8.535156-8.535156h-34.132812c-4.710938 0-8.53125 3.820312-8.53125 8.535156 0 4.710938 3.820312 8.53125 8.53125 8.53125zm0 0"/></svg>