<svg id="SvgjsSvg1062" width="288" height="288" xmlns="http://www.w3.org/2000/svg" version="1.1" xmlns:xlink="http://www.w3.org/1999/xlink" xmlns:svgjs="http://svgjs.com/svgjs"><defs id="SvgjsDefs1063"></defs><g id="SvgjsG1064" transform="matrix(0.9167,0,0,0.9167,11.995198728942881,12.191996027565011)"><svg xmlns="http://www.w3.org/2000/svg" enable-background="new 0 0 128 128" viewBox="0 0 128 128" width="288" height="288"><path fill="#ffa959" d="M42.4,39.6c-22,0-39.9,17.9-39.9,39.9c0,22,17.9,39.9,39.9,39.9c22,0,39.9-17.9,39.9-39.9
			C82.2,57.4,64.4,39.6,42.4,39.6z" class="color353534 svgShape"></path><path fill="#ffa959" d="M85.6,10.7c-14,0-26.3,7.3-33.4,18.2c4.1,0.8,7.9,2.1,11.6,3.8c5.2-6.3,13-10.3,21.8-10.3
			c15.6,0,28.2,12.6,28.2,28.2c0,12.7-8.5,23.5-20,27c0,0.6,0.1,1.2,0.1,1.8c0,3.5-0.4,7-1,10.3c18.6-3.4,32.6-19.7,32.6-39.2
			C125.5,28.6,107.6,10.7,85.6,10.7z" class="color353534 svgShape"></path></svg></g></svg>