<svg id="SvgjsSvg1032" width="288" height="288" xmlns="http://www.w3.org/2000/svg" version="1.1" xmlns:xlink="http://www.w3.org/1999/xlink" xmlns:svgjs="http://svgjs.com/svgjs"><defs id="SvgjsDefs1033"></defs><g id="SvgjsG1034" transform="matrix(0.9167,0,0,0.9167,11.995198093414302,11.995002986145039)"><svg xmlns="http://www.w3.org/2000/svg" data-name="Layer 1" viewBox="0 0 512 512" width="288" height="288"><path d="M156.45,300.48l-21.21,21.21a13.53,13.53,0,0,0,0,19.1L156.45,362a13.52,13.52,0,0,0,19.1,0l21.21-21.21a13.53,13.53,0,0,0,0-19.1l-21.21-21.21h0A13.53,13.53,0,0,0,156.45,300.48Zm28.64,30.76L166,350.33l-19.09-19.09L166,312.15Zm168.41-78.7V212a79.06,79.06,0,0,0,0-157.4V7.5a7.5,7.5,0,0,0-15,0V54.61a79.06,79.06,0,0,0,0,157.4v40.53a79.06,79.06,0,0,0,0,157.4v34.91a13.45,13.45,0,0,0-2.05,1.68l-21.21,21.21a13.52,13.52,0,0,0,0,19.09l21.21,21.22a13.54,13.54,0,0,0,19.1,0l21.21-21.22a13.52,13.52,0,0,0,0-19.09l-21.21-21.21a13.45,13.45,0,0,0-2.05-1.68V409.94a79.06,79.06,0,0,0,0-157.4ZM281.93,133.31A64.07,64.07,0,1,1,346,197.37H346A64.14,64.14,0,0,1,281.93,133.31Zm83.16,344L346,496.38l-19.09-19.09L346,458.19Zm-19.09-82a64.07,64.07,0,1,1,64.07-64.07A64.14,64.14,0,0,1,346,395.31Zm9.55-231.24,21.21-21.22a13.52,13.52,0,0,0,0-19.09l-21.21-21.21a13.51,13.51,0,0,0-19.1,0l-21.21,21.21a13.52,13.52,0,0,0,0,19.09l21.21,21.22a13.54,13.54,0,0,0,19.1,0Zm-28.64-30.76L346,114.21l19.09,19.1L346,152.4Zm-81.84,0a79.17,79.17,0,0,0-71.57-78.7V7.5a7.5,7.5,0,0,0-15,0V54.61a79.06,79.06,0,0,0,0,157.4v40.53a79.06,79.06,0,0,0,0,157.4v34.91a13.45,13.45,0,0,0-2.05,1.68l-21.21,21.21a13.52,13.52,0,0,0,0,19.09l21.21,21.22a13.54,13.54,0,0,0,19.1,0l21.21-21.22a13.52,13.52,0,0,0,0-19.09l-21.21-21.21a13.45,13.45,0,0,0-2.05-1.68V409.94a79.06,79.06,0,0,0,0-157.4V212A79.18,79.18,0,0,0,245.07,133.31Zm-60,344L166,496.38l-19.09-19.09L166,458.19Zm45-146A64.07,64.07,0,1,1,166,267.17,64.14,64.14,0,0,1,230.07,331.24ZM166,197.37H166a64.07,64.07,0,1,1,.06,0ZM355.55,300.48h0a13.53,13.53,0,0,0-19.1,0l-21.21,21.21a13.53,13.53,0,0,0,0,19.1L336.45,362a13.52,13.52,0,0,0,19.1,0l21.21-21.21a13.53,13.53,0,0,0,0-19.1ZM346,350.33l-19.09-19.09L346,312.15l19.09,19.09ZM175.55,102.55a13.51,13.51,0,0,0-19.1,0l-21.21,21.21a13.52,13.52,0,0,0,0,19.09l21.21,21.22a13.54,13.54,0,0,0,19.1,0l21.21-21.22a13.52,13.52,0,0,0,0-19.09ZM166,152.4l-19.09-19.09L166,114.21l19.09,19.1Z" fill="#5d5d5a" class="color000 svgShape"></path></svg></g></svg>