<svg id="SvgjsSvg1034" width="288" height="288" xmlns="http://www.w3.org/2000/svg" version="1.1" xmlns:xlink="http://www.w3.org/1999/xlink" xmlns:svgjs="http://svgjs.com/svgjs"><defs id="SvgjsDefs1035"></defs><g id="SvgjsG1036" transform="matrix(0.9167,0,0,0.9167,11.563243945312507,11.636456756496443)"><svg xmlns="http://www.w3.org/2000/svg" id="Layer_1" x="0" y="0" enable-background="new 0 0 16 16" version="1.1" viewBox="0 0 16 16" xml:space="preserve" width="288" height="288"><path id="path7" fill="#5d5d5a" stroke="none" d="M 7.8496094 0.52148438 C 7.1604627 0.52148438 6.5996094 1.0833208 6.5996094 1.7714844 C 6.5996094 2.4596479 7.1604627 3.0214844 7.8496094 3.0214844 C 8.5387561 3.0214844 9.0996094 2.460631 9.0996094 1.7714844 C 9.0996094 1.0823377 8.5387561 0.52148438 7.8496094 0.52148438 z M 11.621094 0.52148438 C 10.931947 0.52148438 10.371094 1.0823377 10.371094 1.7714844 C 10.371094 2.460631 10.931947 3.0214844 11.621094 3.0214844 C 12.310241 3.0214844 12.871094 2.460631 12.871094 1.7714844 C 12.871094 1.0823377 12.310241 0.52148438 11.621094 0.52148438 z M 3.8007812 0.5234375 C 3.1116345 0.5234375 2.5527344 1.0842909 2.5527344 1.7734375 C 2.5527344 2.4625842 3.1116346 3.0214844 3.8007812 3.0214844 C 4.4899279 3.0214844 5.0507812 2.4625842 5.0507812 1.7734375 C 5.0507812 1.0842909 4.4899278 0.5234375 3.8007812 0.5234375 z M 3.8007812 1.0136719 C 4.2185949 1.0136719 4.5585938 1.3536707 4.5585938 1.7714844 C 4.5585938 2.1902811 4.219578 2.5292969 3.8007812 2.5292969 C 3.3829676 2.5292969 3.0429687 2.189298 3.0429688 1.7714844 C 3.0429688 1.3536707 3.3829676 1.0136719 3.8007812 1.0136719 z M 7.8496094 1.0136719 C 8.267423 1.0136719 8.6074219 1.3536707 8.6074219 1.7714844 C 8.6074219 2.189298 8.267423 2.5292969 7.8496094 2.5292969 C 7.4317958 2.5292969 7.0917969 2.1902811 7.0917969 1.7714844 C 7.0917969 1.3536707 7.4317958 1.0136719 7.8496094 1.0136719 z M 11.621094 1.0136719 C 12.038908 1.0136719 12.378906 1.3536707 12.378906 1.7714844 C 12.378906 2.189298 12.038908 2.5292969 11.621094 2.5292969 C 11.20328 2.5292969 10.863281 2.1902811 10.863281 1.7714844 C 10.863281 1.3536707 11.20328 1.0136719 11.621094 1.0136719 z M 3.609375 4.25 L 3.609375 6 L 7.609375 6 L 7.609375 7.5 L 5.703125 7.5 C 5.099125 7.5 4.609375 7.9917031 4.609375 8.5957031 L 4.609375 11.90625 C 4.609375 12.51025 5.099125 13 5.703125 13 L 7.609375 13 L 7.609375 14.5 L 6.359375 14.5 L 6.359375 15 L 9.359375 15 L 9.359375 14.5 L 8.109375 14.5 L 8.109375 13 L 10.015625 13 C 10.619625 13 11.109375 12.50925 11.109375 11.90625 L 11.109375 8.5957031 C 11.109375 7.9917031 10.618625 7.5 10.015625 7.5 L 8.109375 7.5 L 8.109375 6 L 12.109375 6 L 12.109375 4.25 L 11.609375 4.25 L 11.609375 5.5 L 8.109375 5.5 L 8.109375 4.25 L 7.609375 4.25 L 7.609375 5.5 L 4.109375 5.5 L 4.109375 4.25 L 3.609375 4.25 z M 5.703125 8 L 10.015625 8 C 10.343625 8 10.609375 8.2677031 10.609375 8.5957031 L 10.609375 11.90625 C 10.609375 12.23425 10.342625 12.5 10.015625 12.5 L 5.703125 12.5 C 5.375125 12.5 5.109375 12.23325 5.109375 11.90625 L 5.109375 8.5957031 C 5.109375 8.2677031 5.375125 8 5.703125 8 z " class="color231f20 svgShape"></path></svg></g></svg>