<svg id="SvgjsSvg1001" width="288" height="288" xmlns="http://www.w3.org/2000/svg" version="1.1" xmlns:xlink="http://www.w3.org/1999/xlink" xmlns:svgjs="http://svgjs.com/svgjs"><defs id="SvgjsDefs1002"></defs><g id="SvgjsG1008" transform="matrix(0.9167,0,0,0.9167,12.051428389739982,11.976456356048601)"><svg xmlns="http://www.w3.org/2000/svg" enable-background="new 0 0 64 64" viewBox="0 0 64 64" width="288" height="288"><g transform="translate(30 380)" fill="#c5b5cd" class="color000 svgShape"><path fill="#6f537d" d="M.5-339.7c.1.4.1.8.1 1.2 0 2.2-.8 4.2-2.4 5.7l-3.2 3.2c-1.5 1.5-3.6 2.4-5.7 2.4-4.5 0-8.1-3.6-8.1-8.1 0-2.2.8-4.2 2.4-5.7l3.2-3.2c1.5-1.5 3.6-2.4 5.8-2.4.4 0 .8.1 1.2.1l2.5-2.5c-1.2-.4-2.4-.6-3.7-.6-3 0-5.8 1.2-7.9 3.3l-3.2 3.2c-2.1 2.1-3.3 4.9-3.3 7.9 0 6.1 5 11.1 11.1 11.1 3 0 5.8-1.2 7.9-3.3l3.2-3.2c2.1-2.1 3.3-4.9 3.3-7.9 0-1.3-.2-2.5-.6-3.7L.5-339.7M14.9-372c-3 0-5.8 1.2-7.9 3.3l-3.2 3.2c-2.1 2.1-3.3 4.9-3.3 7.9 0 1.3.2 2.5.6 3.7l2.5-2.5c-.1-.4-.1-.8-.1-1.2 0-2.2.8-4.2 2.4-5.7l3.2-3.2c1.5-1.5 3.6-2.4 5.8-2.4 4.5 0 8.1 3.6 8.1 8.1 0 2.2-.8 4.2-2.4 5.7l-3.2 3.2c-1.5 1.5-3.6 2.4-5.7 2.4-.4 0-.8-.1-1.2-.1L8-347.2c1.2.4 2.4.6 3.7.6 3 0 5.8-1.2 7.9-3.3l3.2-3.2c2.1-2.1 3.3-4.9 3.3-7.9C26-367 21-372 14.9-372" class="color134563 svgShape"></path><path fill="#6f537d" d="M-5.9-338.5c-0.4,0-0.8-0.2-1.1-0.5c-0.6-0.6-0.6-1.6,0-2.3l16-16c0.6-0.6,1.6-0.6,2.3,0     c0.6,0.6,0.6,1.6,0,2.3l-16,16C-5.1-338.6-5.5-338.5-5.9-338.5" class="color134563 svgShape"></path></g></svg></g></svg>