<svg id="SvgjsSvg1018" width="288" height="288" xmlns="http://www.w3.org/2000/svg" version="1.1" xmlns:xlink="http://www.w3.org/1999/xlink" xmlns:svgjs="http://svgjs.com/svgjs"><defs id="SvgjsDefs1019"></defs><g id="SvgjsG1020" transform="matrix(0.9167,0,0,0.9167,11.997458572436273,11.9952003177643)"><svg xmlns="http://www.w3.org/2000/svg" viewBox="0 0 48 48" width="288" height="288"><g data-name="Digital Key" fill="#5d5d5a" class="color000 svgShape"><path d="M47,21H37V10h5.18a3,3,0,1,0,0-2H36a1,1,0,0,0-1,1V21H30V7.82a3,3,0,1,0-2,0V21H23V9a1,1,0,0,0-1-1H15.82a3,3,0,1,0,0,2H21V21H19.54a10,10,0,1,0,0,6H21V38H15.82a3,3,0,1,0,0,2H22a1,1,0,0,0,1-1V27h5V40.18a3,3,0,1,0,2,0V27h2v4a1,1,0,0,0,1,1h2v7a1,1,0,0,0,1,1h6.18a3,3,0,1,0,0-2H37V32h1a1,1,0,0,0,1-1V27h1v3a1,1,0,0,0,1,1h4a1,1,0,0,0,1-1V27h1a1,1,0,0,0,1-1V22A1,1,0,0,0,47,21ZM45,8a1,1,0,1,1-1,1A1,1,0,0,1,45,8ZM29,4a1,1,0,1,1-1,1A1,1,0,0,1,29,4ZM13,10a1,1,0,1,1,1-1A1,1,0,0,1,13,10Zm0,30a1,1,0,1,1,1-1A1,1,0,0,1,13,40Zm16,4a1,1,0,1,1,1-1A1,1,0,0,1,29,44Zm16-6a1,1,0,1,1-1,1A1,1,0,0,1,45,38Zm1-13H45a1,1,0,0,0-1,1v3H42V26a1,1,0,0,0-1-1H38a1,1,0,0,0-1,1v4H34V26a1,1,0,0,0-1-1H18.77a1,1,0,0,0-1,.78,8,8,0,1,1,0-3.56,1,1,0,0,0,1,.78H46Z" fill="#5d5d5a" class="color000 svgShape"></path><path d="M10,20a4,4,0,1,0,4,4A4,4,0,0,0,10,20Zm0,6a2,2,0,1,1,2-2A2,2,0,0,1,10,26Z" fill="#5d5d5a" class="color000 svgShape"></path></g></svg></g></svg>