<svg id="SvgjsSvg1019" width="288" height="288" xmlns="http://www.w3.org/2000/svg" version="1.1" xmlns:xlink="http://www.w3.org/1999/xlink" xmlns:svgjs="http://svgjs.com/svgjs"><defs id="SvgjsDefs1020"></defs><g id="SvgjsG1021" transform="matrix(0.9167,0,0,0.9167,11.994341979960353,11.995200114196535)"><svg xmlns="http://www.w3.org/2000/svg" data-name="Layer 1" viewBox="0 0 128 128" width="288" height="288"><path d="M62 15.73669V22h4V15.73669a8 8 0 1 0-4 0zM64 4a4 4 0 1 1-4 4A4.00458 4.00458 0 0 1 64 4zM36.01367 23.501a7.95257 7.95257 0 0 0 2.12476-.29474l3.83112 6.63568a7.9762 7.9762 0 0 1 5.571 2.14832c.0741-.03809.15027-.07214.22461-.10968L41.60034 21.20282A7.99461 7.99461 0 0 0 32.0001 8.57465a8.20294 8.20294 0 0 0-2.92832 10.92779A8.00559 8.00559 0 0 0 36.01367 23.501zm-3.83788-9.02353A3.99253 3.99253 0 0 1 34 12.03858a4.04829 4.04829 0 0 1 5.46437 1.46386 4.00064 4.00064 0 1 1-7.28857.975zM11.50244 42.92822a8.14813 8.14813 0 0 0 9.70184-1.32709L31.881 47.76532c.0376-.07446.07166-.15063.10974-.22479a7.9417 7.9417 0 0 1-2.15381-5.46094c0-.03693.00488-.073.00537-.10986l-6.63965-3.83337a7.99579 7.99579 0 1 0-11.7002 4.79187zM12.03857 34a4 4 0 1 1 6.92822 4 4.004 4.004 0 0 1-5.46415 1.46447A4.08785 4.08785 0 0 1 12.03857 34zM15.73669 66H22V62H15.73669a8 8 0 1 0 0 4zM4 64a4 4 0 1 1 4 4A4.00458 4.00458 0 0 1 4 64zM66 112.26331V106H62v6.26331a8 8 0 1 0 4 0zM64 124a4 4 0 1 1 4-4A4.00427 4.00427 0 0 1 64 124zM89.86346 104.79749l-3.83423-6.64105a7.97952 7.97952 0 0 1-5.56976-2.14667c-.07416.03809-.15033.07214-.22479.10974L86.398 106.7948a7.942 7.942 0 0 0-2.12553 3.63188 8.00019 8.00019 0 0 0 15.45506 4.14168 7.99213 7.99213 0 0 0-9.86407-9.77087zm5.96455 8.72611a3.99918 3.99918 0 0 1-1.82794 2.43828 3.99987 3.99987 0 1 1-2.00642-7.46382 3.9468 3.9468 0 0 1 3.83436 5.02554zM116.49707 85.07129a8.01212 8.01212 0 0 0-9.69934 1.32825l-10.678-6.16492c-.03766.07465-.07178.151-.11.22534a7.97718 7.97718 0 0 1 2.14807 5.57086l6.63947 3.83325a8.00827 8.00827 0 0 0 3.70011 9.06455A8.1286 8.1286 0 0 0 119.42529 96 8.0095 8.0095 0 0 0 116.49707 85.07129zM115.96143 94a4 4 0 1 1-1.46387-5.46387A4.00208 4.00208 0 0 1 115.96143 94zM120 56a8.00691 8.00691 0 0 0-7.73669 6H106v4h6.26331A7.996 7.996 0 1 0 120 56zm0 12a4 4 0 1 1 4-4A4.00427 4.00427 0 0 1 120 68zM29.84216 86.03082A7.97512 7.97512 0 0 1 31.99023 80.46c-.03821-.07434-.07233-.1507-.11-.22534l-10.6778 6.16479A7.99462 7.99462 0 0 0 8.57468 95.99995a8.21577 8.21577 0 0 0 10.92776 2.92876 8.00827 8.00827 0 0 0 3.70026-9.06464zm-12.33972 9.433a3.9998 3.9998 0 1 1-4-6.92773v-.001a4.00022 4.00022 0 0 1 4 6.92871zM47.54053 96.00977a7.98055 7.98055 0 0 1-5.57056 2.148l-3.83325 6.6394a8.00517 8.00517 0 0 0-9.06491 3.69983A8.16951 8.16951 0 0 0 32 119.42577a8.07591 8.07591 0 0 0 10.9282-2.92863 8.21225 8.21225 0 0 0-1.32632-9.70215l6.16345-10.67548C47.69086 96.08191 47.61469 96.04785 47.54053 96.00977zm-8.07617 18.4873a3.99851 3.99851 0 1 1 .39941-3.03516A3.97378 3.97378 0 0 1 39.46436 114.49707zM98.15771 41.96973c.00049.03687.00537.07294.00537.10986a7.94211 7.94211 0 0 1-2.15381 5.46094c.03809.07416.07214.15033.10974.22479l10.67657-6.16412a7.99561 7.99561 0 0 0 12.62993-9.60081 8.11956 8.11956 0 0 0-10.928-2.92861 8.00675 8.00675 0 0 0-3.7002 9.06458zm12.33984-9.43408a4.00022 4.00022 0 0 1 4 6.92871 4.00022 4.00022 0 1 1-4-6.92871zM80.45947 31.99023a7.9748 7.9748 0 0 1 5.571-2.14832l3.83117-6.63567a8.00795 8.00795 0 1 0-3.462-2.00343L80.23492 31.88055C80.30927 31.91809 80.38538 31.95215 80.45947 31.99023zm8.07617-18.48779a4.00022 4.00022 0 0 1 6.92871 4 4.00022 4.00022 0 1 1-6.92871-4z" fill="#5d5d5a" class="color000 svgShape"></path><path d="M98,71a4.00427,4.00427,0,0,0,4-4V61a4.00458,4.00458,0,0,0-4-4H95.22266A32.13406,32.13406,0,0,0,91.0249,46.87451l1.96586-1.96634a4.026,4.026,0,0,0,.00045-5.6567l-4.24268-4.24268a4.00533,4.00533,0,0,0-5.65674,0l-1.96631,1.96582A32.13491,32.13491,0,0,0,71,32.77734V30a4.00458,4.00458,0,0,0-4-4H61a4.00458,4.00458,0,0,0-4,4v2.77734a32.13491,32.13491,0,0,0-10.12549,4.19727L44.9082,35.00879a4.00444,4.00444,0,0,0-5.65674,0l-4.24209,4.24209a4.11536,4.11536,0,0,0-.00107,5.65683l1.96631,1.9668A32.13491,32.13491,0,0,0,32.77734,57H30a4.00458,4.00458,0,0,0-4,4v6a4.00427,4.00427,0,0,0,4,4h2.77734a32.147,32.147,0,0,0,4.19727,10.126L35.00879,83.0918a4.00415,4.00415,0,0,0,0,5.65723l4.24268,4.24219a4.00326,4.00326,0,0,0,5.65723,0l1.96582-1.9668A32.10106,32.10106,0,0,0,57,95.22266V98a4.00427,4.00427,0,0,0,4,4h6a4.00427,4.00427,0,0,0,4-4V95.22266a32.14654,32.14654,0,0,0,10.12549-4.19824l1.96631,1.9668a4.00178,4.00178,0,0,0,5.65674,0L92.99121,88.749a4.00415,4.00415,0,0,0,0-5.65723L91.02539,81.126A32.147,32.147,0,0,0,95.22266,71Zm-6.39551-2.33105A27.628,27.628,0,0,1,86.81836,80.2168l-.981,1.37793,4.32568,4.32617-4.24268,4.24219-4.32568-4.32617-1.37842.98145a27.64407,27.64407,0,0,1-11.54736,4.78613L67,91.88477V98H61V91.88477l-1.66895-.28027a27.63135,27.63135,0,0,1-11.54736-4.78613l-1.37842-.98145-4.32568,4.32617-4.24268-4.24316,4.32568-4.3252-.981-1.37793a27.628,27.628,0,0,1-4.78613-11.54785L36.11523,67H30V61h6.11523l.28027-1.66895a27.62608,27.62608,0,0,1,4.78613-11.54736l.981-1.37793-4.32568-4.32617,4.24316-4.24268,4.32568,4.32568,1.37793-.981a27.62608,27.62608,0,0,1,11.54736-4.78613L61,36.11523V30h6v6.11523l1.66895.28027a27.62608,27.62608,0,0,1,11.54736,4.78613l1.37793.981,4.32617-4.32568,4.24268,4.24268-4.32617,4.32617.981,1.37793a27.62582,27.62582,0,0,1,4.78662,11.54736L91.88477,61H98v6H91.88477Z" fill="#5d5d5a" class="color000 svgShape"></path><path d="M64,47A17,17,0,1,0,81,64,17.019,17.019,0,0,0,64,47Zm0,30A13,13,0,1,1,77,64,13.01474,13.01474,0,0,1,64,77Z" fill="#5d5d5a" class="color000 svgShape"></path></svg></g></svg>