<svg id="SvgjsSvg1013" width="288" height="288" xmlns="http://www.w3.org/2000/svg" version="1.1" xmlns:xlink="http://www.w3.org/1999/xlink" xmlns:svgjs="http://svgjs.com/svgjs"><defs id="SvgjsDefs1014"></defs><g id="SvgjsG1015" transform="matrix(0.9167,0,0,0.9167,11.995199205589302,11.995199205589302)"><svg xmlns="http://www.w3.org/2000/svg" viewBox="0 0 50 50" width="288" height="288"><path d="M42 7h-9V1H17v6H8v11H1v14h7v11h9v6h16v-6h9V32h7V18h-7V7zM19 3h12v10H19V3zM3 20h12v10H3V20zm28 27H19V37h12v10zm9-6h-7v-6H17v6h-7v-9h7V18h-7V9h7v6h16V9h7v9h-7v14h7v9zm7-11H35V20h12v10z" fill="#7a838e" class="color000 svgShape"></path></svg></g></svg>