<svg id="SvgjsSvg1001" width="288" height="288" xmlns="http://www.w3.org/2000/svg" version="1.1" xmlns:xlink="http://www.w3.org/1999/xlink" xmlns:svgjs="http://svgjs.com/svgjs"><defs id="SvgjsDefs1002"></defs><g id="SvgjsG1008" transform="matrix(0.9167,0,0,0.9167,11.995200000000011,11.995200000000011)"><svg xmlns="http://www.w3.org/2000/svg" viewBox="0 0 48 48" width="288" height="288"><path d="M41,25H39V16.82A3,3,0,1,0,35.18,13H31V11a3,3,0,0,0-3-3H20a3,3,0,0,0-3,3v2H13.82A3,3,0,1,0,10,16.82V25H7a3,3,0,0,0-3,3v6a3,3,0,0,0,3,3H8v1a1,1,0,0,0,0,2h6a1,1,0,0,0,0-2V37h1a3,3,0,0,0,3-3V32H30v2a3,3,0,0,0,3,3h1v1a1,1,0,0,0,0,2h6a1,1,0,0,0,0-2V37h1a3,3,0,0,0,3-3V28A3,3,0,0,0,41,25ZM38,13a1,1,0,1,1-1,1A1,1,0,0,1,38,13ZM19,11a1,1,0,0,1,1-1h8a1,1,0,0,1,1,1v6a1,1,0,0,1-1,1H20a1,1,0,0,1-1-1Zm-8,2a1,1,0,1,1-1,1A1,1,0,0,1,11,13Zm5,21a1,1,0,0,1-1,1H7a1,1,0,0,1-1-1V28a1,1,0,0,1,1-1h8a1,1,0,0,1,1,1Zm2-4V28a3,3,0,0,0-3-3H12V16.82A3,3,0,0,0,13.82,15H17v2a3,3,0,0,0,3,3h1v1a1,1,0,0,0,0,2h6a1,1,0,0,0,0-2V20h1a3,3,0,0,0,3-3V15h4.18A3,3,0,0,0,37,16.82V25H33a3,3,0,0,0-3,3v2Zm24,4a1,1,0,0,1-1,1H33a1,1,0,0,1-1-1V28a1,1,0,0,1,1-1h8a1,1,0,0,1,1,1Z" data-name="Layer 2" fill="#ffa146" class="color000 svgShape"></path></svg></g></svg>