<svg id="SvgjsSvg1021" width="288" height="288" xmlns="http://www.w3.org/2000/svg" version="1.1" xmlns:xlink="http://www.w3.org/1999/xlink" xmlns:svgjs="http://svgjs.com/svgjs"><defs id="SvgjsDefs1022"></defs><g id="SvgjsG1023" transform="matrix(0.9167,0,0,0.9167,11.99583425750734,11.995298348045367)"><svg xmlns="http://www.w3.org/2000/svg" enable-background="new 0 0 70 70" viewBox="0 0 70 70" width="288" height="288"><path d="M2.7382812,31.9726562c1.0029297,1.7138672,2.8115234,2.6704102,4.6669922,2.6704102	c0.9238281,0,1.8603516-0.2373047,2.7138672-0.7368164c0.9412231-0.550293,1.6484375-1.3467407,2.0999146-2.2578125
	l12.4873047,3.3024902c-0.1763916,1.534729,0.1150513,3.135498,0.9528198,4.5686035c0,0.0004883,0,0.0004883,0,0.0004883
	c0.1154785,0.1973877,0.2493896,0.3765259,0.3798218,0.559082L15.1062012,50.9091797
	c-1.4608154-0.6907959-3.2269287-0.6764526-4.7253418,0.1987305c-1.1669922,0.6821289-1.9990234,1.7783203-2.3417969,3.0869141
	c-0.3427734,1.3076172-0.15625,2.6708984,0.5263672,3.8378906c0,0.0004883,0,0.0004883,0,0.0004883
	c0.6826172,1.1674805,1.7792969,1.9990234,3.0869141,2.3417969c0.4277344,0.1118164,0.8613281,0.1674805,1.2919922,0.1674805
	c0.8867188,0,1.7607422-0.2353516,2.546875-0.6948242c1.1669922-0.6826172,1.9990234-1.7788086,2.3417969-3.0864258
	c0.3427734-1.3081055,0.1552734-2.6713867-0.5273438-3.8388672c-0.1699829-0.2908936-0.3670044-0.5559692-0.5823364-0.7992554
	l10.6876831-10.5872803c1.0038452,0.8070068,2.1908569,1.3292847,3.4406738,1.5353394L28.609375,56.8424072
	c-0.4438477,0.0953369-0.8781128,0.2426147-1.28125,0.4783936c-2.0566406,1.2026367-2.7509766,3.8544922-1.5488281,5.9116211
	c0.8027344,1.3730469,2.2509766,2.1391602,3.7382812,2.1391602c0.7402344,0,1.4902344-0.1904297,2.1738281-0.5898438
	c2.0566406-1.2036133,2.7509766-3.8554688,1.5488281-5.9121094c-0.5784912-0.9884033-1.505127-1.6928101-2.6099854-1.9898682
	l2.2388306-13.750061c0.9983521-0.1103516,1.989624-0.4190063,2.9111938-0.9578247
	c1.0650024-0.6227417,1.9387817-1.4812012,2.5670776-2.5032349l21.0172729,5.7300415
	c-0.0404053,0.8275757,0.1542969,1.6502686,0.5826416,2.3820801c0.5820312,0.9970703,1.5185547,1.7070312,2.6357422,1.9995117
	c0.3642578,0.0957031,0.734375,0.1430664,1.1025391,0.1430664c0.7568359,0,1.5029297-0.2006836,2.1738281-0.5927734
	c0.9960938-0.5825195,1.7070312-1.5185547,1.9990234-2.6352539c0.2929688-1.1166992,0.1328125-2.2807617-0.4501953-3.2768555
	s-1.5185547-1.7060547-2.6347656-1.9985352c-1.1191406-0.293457-2.2802734-0.1333008-3.2763672,0.449707
	c-0.6694946,0.3915405-1.1947632,0.9522705-1.56604,1.6105347l-20.7767334-5.6644287
	c0.0148926-0.0523071,0.0349731-0.1022949,0.0488281-0.1550903c0.475769-1.8154907,0.2449341-3.7007446-0.633606-5.3473511
	l10.0928955-5.9017334c0.7982788,0.9594116,1.8605957,1.6560669,3.0924683,1.9790649
	c0.5097656,0.1337891,1.0273438,0.199707,1.5410156,0.199707c1.0576172,0,2.1005859-0.2802734,3.0371094-0.828125
	c1.3925781-0.8144531,2.3847656-2.1220703,2.7929688-3.6821289c0.4091797-1.5600586,0.1855469-3.1860352-0.6289062-4.578125
	c-1.6796875-2.8725586-5.3837891-3.8447266-8.2597656-2.1645508c-2.5783691,1.508728-3.6176758,4.6459961-2.5910645,7.3513184
	l-10.2505493,5.9938965c-0.7825928-0.8233643-1.7404785-1.4573364-2.8220215-1.8485107l-1.1939697-14.2393799
	c0.454834-0.1157837,0.8970337-0.291626,1.3136597-0.5351562c2.4091797-1.4082031,3.2236328-4.5146484,1.8154297-6.925293
	c-1.4101562-2.4091797-4.5175781-3.2226562-6.9257812-1.8144531c-1.1669922,0.6826172-1.9990234,1.7788086-2.3417969,3.0869141
	s-0.1552734,2.6713867,0.5273438,3.8383789s1.7792969,1.9985352,3.0869141,2.3413086
	c0.1745605,0.0458374,0.3502808,0.0758057,0.526001,0.1027222l1.1499023,13.7142944
	c-1.4650269-0.0994263-2.9246216,0.2381592-4.2198486,0.9954834c-1.4665527,0.8572998-2.5215454,2.1478271-3.1130371,3.6132202
	l-12.4411011-3.2902222c0.0968018-1.0777588-0.1173096-2.192749-0.7036743-3.1960449
	c-0.7275391-1.2441406-1.8964844-2.1303711-3.2900391-2.4956055c-1.3945312-0.3666992-2.8476562-0.1660156-4.0908203,0.5615234
	c-2.5673828,1.5009766-3.4355469,4.8120117-1.9345703,7.3803711C2.7382812,31.9726562,2.7382812,31.9726562,2.7382812,31.9726562z
	 M15.8984375,56.2539062c-0.2080078,0.7915039-0.7109375,1.4545898-1.4169922,1.8671875s-1.5292969,0.5258789-2.3222656,0.3188477
	c-0.7910156-0.2070312-1.4541016-0.7099609-1.8671875-1.4160156c-0.4130859-0.706543-0.5253906-1.53125-0.3183594-2.3222656
	c0.2070312-0.7915039,0.7099609-1.4545898,1.4169922-1.8671875c1.4570312-0.8520508,3.3359375-0.3598633,4.1884766,1.0976562
	C15.9921875,54.6381836,16.1054688,55.4628906,15.8984375,56.2539062z M31.5136719,59.8793945
	c0.6455078,1.1044922,0.2724609,2.5292969-0.8320312,3.1757812c-1.1025391,0.6455078-2.5283203,0.2739258-3.1757812-0.8325195
	c-0.6455078-1.1049805-0.2724609-2.5292969,0.8320312-3.175293c0.3483887-0.2039185,0.7357788-0.3066406,1.1281128-0.3135376
	c0.0040894,0.000061,0.0084229,0.0010376,0.0125122,0.0010376c0.0111084,0,0.0209351-0.0053711,0.0319824-0.0057373
	c0.1958618,0.0003662,0.3933716,0.0252075,0.5881348,0.0765381C30.6982422,58.9624023,31.2011719,59.34375,31.5136719,59.8793945z
	 M61.4326172,45.0117188c0.1572266-0.6000977,0.5380859-1.1025391,1.0742188-1.4155273
	c0.3603516-0.2109375,0.7607422-0.3183594,1.1679688-0.3183594c0.1972656,0,0.3955078,0.0253906,0.5917969,0.0766602
	c0.5996094,0.1572266,1.1025391,0.5385742,1.4150391,1.0737305c0.3134766,0.5356445,0.3994141,1.1606445,0.2421875,1.7602539
	s-0.5380859,1.1025391-1.0742188,1.4155273c-0.5351562,0.3129883-1.1611328,0.3994141-1.7597656,0.2416992
	c-0.6005859-0.1572266-1.1035156-0.5385742-1.4160156-1.0737305c0-0.0004883,0-0.0004883,0-0.0004883
	C61.3613281,46.2363281,61.2753906,45.6113281,61.4326172,45.0117188z M51.2470703,19.0639648
	c0.6386719-0.3735352,1.3388672-0.5512695,2.03125-0.5512695c1.3886719,0,2.7421875,0.7163086,3.4921875,1.9990234
	c0.5449219,0.9311523,0.6943359,2.0185547,0.4208984,3.0615234c-0.2734375,1.043457-0.9365234,1.9179688-1.8681641,2.4624023
	c-0.9287109,0.5429688-2.0175781,0.6938477-3.0615234,0.4204102c-1.0429688-0.2734375-1.9179688-0.9370117-2.4619141-1.8681641
	C48.6757812,22.6660156,49.3251953,20.1879883,51.2470703,19.0639648z M29.4951172,11.2353516
	c-0.4130859-0.7060547-0.5263672-1.5302734-0.3193359-2.3217773c0.2080078-0.7910156,0.7109375-1.4545898,1.4169922-1.8671875
	c0.484375-0.2836914,1.015625-0.4179688,1.5410156-0.4179688c1.0527344,0,2.0791016,0.5429688,2.6484375,1.5151367
	c0.8515625,1.4580078,0.359375,3.3374023-1.0986328,4.1894531C32.2275391,13.1875,30.3486328,12.6928711,29.4951172,11.2353516z
	 M29.3212891,31.1254883c1.2441406-0.7270508,2.6992188-0.9272461,4.09375-0.5620117
	c1.3945312,0.3657227,2.5634766,1.2524414,3.2910156,2.4970703c0.7285156,1.2446289,0.9277344,2.6982422,0.5625,4.0932617
	c-0.3662109,1.3945312-1.2529297,2.5634766-2.4980469,3.2915039c-2.5703125,1.5019531-5.8818359,0.6342773-7.3847656-1.9350586
	C25.8837891,35.9404297,26.7519531,32.6274414,29.3212891,31.1254883z M5.6826172,26.3183594
	c0.7822266-0.4570312,1.6943359-0.5839844,2.5742188-0.3535156c0.8769531,0.2299805,1.6123047,0.7875977,2.0703125,1.5703125
	c0.9443359,1.6162109,0.3984375,3.699707-1.2177734,4.6445312C7.4951172,33.125,5.4101562,32.5791016,4.4648438,30.9633789
	C3.5205078,29.3466797,4.0664062,27.2631836,5.6826172,26.3183594z" fill="#5d5d5a" class="color000 svgShape"></path></svg></g></svg>