<svg id="SvgjsSvg1014" width="288" height="288" xmlns="http://www.w3.org/2000/svg" version="1.1" xmlns:xlink="http://www.w3.org/1999/xlink" xmlns:svgjs="http://svgjs.com/svgjs"><defs id="SvgjsDefs1015"></defs><g id="SvgjsG1016" transform="matrix(0.9167,0,0,0.9167,11.995200000000011,11.993658525466913)"><svg xmlns="http://www.w3.org/2000/svg" data-name="Layer 2" viewBox="0 0 32 32" width="288" height="288"><path d="M24,21.5a4.48,4.48,0,0,0-3.77,2.06l-8.68-4.83a4.4,4.4,0,0,0,0-5.46l8.68-4.83A4.49,4.49,0,1,0,19.5,6a4.4,4.4,0,0,0,.29,1.55h0l-8.94,5A4.4,4.4,0,0,0,8,11.5a4.5,4.5,0,0,0,0,9,4.4,4.4,0,0,0,2.82-1l8.94,5h0A4.4,4.4,0,0,0,19.5,26,4.5,4.5,0,1,0,24,21.5Zm0-19A3.5,3.5,0,1,1,20.5,6,3.5,3.5,0,0,1,24,2.5ZM8,19.5A3.5,3.5,0,1,1,11.5,16,3.5,3.5,0,0,1,8,19.5Zm16,10A3.5,3.5,0,1,1,27.5,26,3.5,3.5,0,0,1,24,29.5Z" fill="#5d5d5a" class="color000 svgShape"></path></svg></g></svg>