<svg id="SvgjsSvg1026" width="288" height="288" xmlns="http://www.w3.org/2000/svg" version="1.1" xmlns:xlink="http://www.w3.org/1999/xlink" xmlns:svgjs="http://svgjs.com/svgjs"><defs id="SvgjsDefs1027"></defs><g id="SvgjsG1028" transform="matrix(0.9167,0,0,0.9167,11.995200000000011,11.995200635528562)"><svg xmlns="http://www.w3.org/2000/svg" width="288" height="288" data-name="Layer 1" viewBox="0 0 128 128"><path d="M6 107H64a1.99982 1.99982 0 0 0 1.41406-3.41406l-7-7a1.99979 1.99979 0 0 0-2.82812 2.82813L59.17139 103H6a2.00229 2.00229 0 0 1-2-2V27a2.00229 2.00229 0 0 1 2-2H52a2.00229 2.00229 0 0 1 2 2V85.75a2 2 0 0 0 4 0V27a6.00656 6.00656 0 0 0-6-6H6a6.00656 6.00656 0 0 0-6 6v74A6.00656 6.00656 0 0 0 6 107zM122 21H64a1.99982 1.99982 0 0 0-1.41406 3.41406l7 7a1.99979 1.99979 0 0 0 2.82813-2.82812L68.82861 25H122a2.00229 2.00229 0 0 1 2 2v74a2.00229 2.00229 0 0 1-2 2H76a2.00229 2.00229 0 0 1-2-2V46.25a2 2 0 0 0-4 0V101a6.00656 6.00656 0 0 0 6 6h46a6.00656 6.00656 0 0 0 6-6V27A6.00656 6.00656 0 0 0 122 21z" fill="#5d5d5a" class="color000 svgShape"></path><path d="M78,72V88a2.0001,2.0001,0,0,0,2,2h38a2.0001,2.0001,0,0,0,2-2V72a10.00932,10.00932,0,0,0-7.38342-9.64081A16.09234,16.09234,0,0,1,109.54749,66H110a6.00656,6.00656,0,0,1,6,6V86H82V72a6.00656,6.00656,0,0,1,6-6h.45251a16.09234,16.09234,0,0,1-3.06909-3.64081A10.00932,10.00932,0,0,0,78,72Z" fill="#5d5d5a" class="color000 svgShape"></path><path d="M99 66A12 12 0 1 0 87 54 12.01344 12.01344 0 0 0 99 66zm0-20a8 8 0 1 1-8 8A8.00917 8.00917 0 0 1 99 46zM8 72V88a2.0001 2.0001 0 0 0 2 2H48a2.0001 2.0001 0 0 0 2-2V72a10.00932 10.00932 0 0 0-7.38342-9.64081A16.09234 16.09234 0 0 1 39.54749 66H40a6.00656 6.00656 0 0 1 6 6V86H12V72a6.00656 6.00656 0 0 1 6-6h.45251a16.09234 16.09234 0 0 1-3.06909-3.64081A10.00932 10.00932 0 0 0 8 72z" fill="#5d5d5a" class="color000 svgShape"></path><path d="M29,66A12,12,0,1,0,17,54,12.01344,12.01344,0,0,0,29,66Zm0-20a8,8,0,1,1-8,8A8.00917,8.00917,0,0,1,29,46Z" fill="#5d5d5a" class="color000 svgShape"></path></svg></g></svg>