<?xml version="1.0"?>
<svg xmlns="http://www.w3.org/2000/svg" viewBox="0 0 64 64" width="512" height="512"><g id="Distributed-4" data-name="Distributed"><path d="M10,24a3,3,0,1,0-3-3A3,3,0,0,0,10,24Zm0-4a1,1,0,1,1-1,1A1,1,0,0,1,10,20Z"/><path d="M5,27h6a1,1,0,0,0,0-2H5a1,1,0,0,0,0,2Z"/><path d="M14,27h1a1,1,0,0,0,0-2H14a1,1,0,0,0,0,2Z"/><path d="M10,46a3,3,0,1,0-3-3A3,3,0,0,0,10,46Zm0-4a1,1,0,1,1-1,1A1,1,0,0,1,10,42Z"/><path d="M46,30H62a1,1,0,0,0,1-1V13a1,1,0,0,0-1-1H46a1,1,0,0,0-1,1v4.078L41,9.745V2a1,1,0,0,0-1-1H24a1,1,0,0,0-1,1V9.745l-4,7.333V13a1,1,0,0,0-1-1H2a1,1,0,0,0-1,1V29a1,1,0,0,0,1,1H18a1,1,0,0,0,1-1V24.922L22.861,32,19,39.078V35a1,1,0,0,0-1-1H2a1,1,0,0,0-1,1V51a1,1,0,0,0,1,1H18a1,1,0,0,0,1-1V46.922l4,7.333V62a1,1,0,0,0,1,1H40a1,1,0,0,0,1-1V54.255l4-7.333V51a1,1,0,0,0,1,1H62a1,1,0,0,0,1-1V35a1,1,0,0,0-1-1H46a1,1,0,0,0-1,1v4.078L41.139,32,45,24.922V29A1,1,0,0,0,46,30Zm1-16H61V28H47ZM25,3H39V17H25ZM24,19H40a1,1,0,0,0,1-1V13.922L44.861,21,41,28.078V24a1,1,0,0,0-1-1H24a1,1,0,0,0-1,1v4.078L19.139,21,23,13.922V18A1,1,0,0,0,24,19Zm15,6V39H25V25ZM17,28H3V14H17Zm0,22H3V36H17ZM39,61H25V47H39Zm1-16H24a1,1,0,0,0-1,1v4.078L19.139,43,23,35.922V40a1,1,0,0,0,1,1H40a1,1,0,0,0,1-1V35.922L44.861,43,41,50.078V46A1,1,0,0,0,40,45Zm7-9H61V50H47Z"/><path d="M54,18a3,3,0,1,0,3,3A3,3,0,0,0,54,18Zm0,4a1,1,0,1,1,1-1A1,1,0,0,1,54,22Z"/><path d="M55,47H49a1,1,0,0,0,0,2h6a1,1,0,0,0,0-2Z"/><path d="M59,47H58a1,1,0,0,0,0,2h1a1,1,0,0,0,0-2Z"/><path d="M54,40a3,3,0,1,0,3,3A3,3,0,0,0,54,40Zm0,4a1,1,0,1,1,1-1A1,1,0,0,1,54,44Z"/><path d="M32,35a3,3,0,1,0-3-3A3,3,0,0,0,32,35Zm0-4a1,1,0,1,1-1,1A1,1,0,0,1,32,31Z"/><path d="M32,7a3,3,0,1,0,3,3A3,3,0,0,0,32,7Zm0,4a1,1,0,1,1,1-1A1,1,0,0,1,32,11Z"/><path d="M32,57a3,3,0,1,0-3-3A3,3,0,0,0,32,57Zm0-4a1,1,0,1,1-1,1A1,1,0,0,1,32,53Z"/></g></svg>
