<svg id="SvgjsSvg1001" width="288" height="288" xmlns="http://www.w3.org/2000/svg" version="1.1" xmlns:xlink="http://www.w3.org/1999/xlink" xmlns:svgjs="http://svgjs.com/svgjs"><defs id="SvgjsDefs1002"></defs><g id="SvgjsG1008" transform="matrix(0.9167,0,0,0.9167,11.995200000000011,11.995107848358174)"><svg xmlns="http://www.w3.org/2000/svg" enable-background="new 0 0 128 128" viewBox="0 0 128 128" width="288" height="288"><path fill="#5d5d5a" d="M34.998 121c-.31 0-.624-.072-.918-.225-.981-.508-1.364-1.715-.855-2.695l57-110c.507-.981 1.716-1.365 2.695-.856.981.508 1.364 1.715.855 2.696l-57 110C36.42 120.606 35.722 121 34.998 121zM40 55c-13.233 0-24-10.767-24-24S26.767 7 40 7s24 10.767 24 24S53.233 55 40 55zM40 11c-11.028 0-20 8.972-20 20s8.972 20 20 20 20-8.972 20-20S51.028 11 40 11zM88 121c-13.233 0-24-10.767-24-24s10.767-24 24-24 24 10.767 24 24S101.233 121 88 121zM88 77c-11.028 0-20 8.972-20 20s8.972 20 20 20 20-8.972 20-20S99.028 77 88 77z" class="color505070 svgShape"></path></svg></g></svg>