<svg id="SvgjsSvg1024" width="288" height="288" xmlns="http://www.w3.org/2000/svg" version="1.1" xmlns:xlink="http://www.w3.org/1999/xlink" xmlns:svgjs="http://svgjs.com/svgjs"><defs id="SvgjsDefs1025"></defs><g id="SvgjsG1026" transform="matrix(0.9167,0,0,0.9167,11.9952003177643,11.892040765094777)"><svg xmlns="http://www.w3.org/2000/svg" viewBox="0 0 50 50" width="288" height="288"><path d="M38.594 13.356l.468-4.477L34.95 7.05l-1.829-4.112-4.477.467L25 .765l-3.644 2.641-4.477-.468L15.05 7.05l-4.112 1.829.467 4.477L8.765 17l2.641 3.644-.468 4.477 4.113 1.829.949 2.135v19.72l9-5.625 9 5.625v-19.72l.95-2.135 4.112-1.829-.467-4.477L41.235 17l-2.641-3.644zM25 40.821l-7 4.375V30.945l3.356-.35L25 33.235l3.644-2.641 3.356.351v14.25l-7-4.374zm11.922-16.938l-3.487 1.552-1.552 3.487-3.793-.396L25 30.765l-3.09-2.239-3.793.396-1.552-3.487-3.487-1.552.396-3.793L11.235 17l2.239-3.09-.396-3.793 3.487-1.552 1.552-3.487 3.793.396L25 3.235l3.09 2.239 3.793-.396 1.552 3.487 3.487 1.552-.396 3.793L38.765 17l-2.239 3.09.396 3.793z" fill="#5d5d5a" class="color000 svgShape"></path><path d="M25 7c-5.514 0-10 4.486-10 10s4.486 10 10 10 10-4.486 10-10S30.514 7 25 7zm0 18c-4.411 0-8-3.589-8-8s3.589-8 8-8 8 3.589 8 8-3.589 8-8 8z" fill="#5d5d5a" class="color000 svgShape"></path></svg></g></svg>