<svg id="SvgjsSvg1001" width="288" height="288" xmlns="http://www.w3.org/2000/svg" version="1.1" xmlns:xlink="http://www.w3.org/1999/xlink" xmlns:svgjs="http://svgjs.com/svgjs"><defs id="SvgjsDefs1002"></defs><g id="SvgjsG1008" transform="matrix(0.9167,0,0,0.9167,11.995200000000011,11.995200000000011)"><svg xmlns="http://www.w3.org/2000/svg" enable-background="new 0 0 32 32" viewBox="0 0 32 32" width="288" height="288"><path fill="#000000" d="M27.5380859,29.5H4.4619141C3.65625,29.5,3,28.8271484,3,28s0.65625-1.5,1.4619141-1.5h23.0761719
				C28.34375,26.5,29,27.1728516,29,28S28.34375,29.5,27.5380859,29.5z M4.4619141,27.5C4.2070313,27.5,4,27.7246094,4,28
				s0.2070313,0.5,0.4619141,0.5h23.0761719C27.7929688,28.5,28,28.2753906,28,28s-0.2070313-0.5-0.4619141-0.5H4.4619141z" class="colorCB3074 svgShape"></path><path fill="#000000" d="M10 25.5H7c-.5527344 0-1-.4472656-1-1v-3c0-.265625.1054688-.5195313.2929688-.7070313l12-12c.390625-.390625 1.0234375-.390625 1.4140625 0l3 3c.390625.390625.390625 1.0234375 0 1.4140625l-12 12C10.5195313 25.3945313 10.265625 25.5 10 25.5zM8 23.5h1.5859375l11-11L19 10.9140625l-11 11V23.5zM24 11.5c-.2558594 0-.5117188-.0976563-.7070313-.2929688l-3-3c-.390625-.390625-.390625-1.0234375 0-1.4140625l4-4c.390625-.390625 1.0234375-.390625 1.4140625 0l3 3c.390625.390625.390625 1.0234375 0 1.4140625l-4 4C24.5117188 11.4023438 24.2558594 11.5 24 11.5zM22.4140625 7.5L24 9.0859375 26.5859375 6.5 25 4.9140625 22.4140625 7.5z" class="color332851 svgShape"></path><path fill="#000000" d="M14,11.5c-0.2558594,0-0.5117188-0.0976563-0.7070313-0.2929688
					c-0.390625-0.390625-0.390625-1.0234375,0-1.4140625l5-5c0.390625-0.390625,1.0234375-0.390625,1.4140625,0l2,2
					c0.390625,0.390625,0.390625,1.0234375,0,1.4140625s-1.0234375,0.390625-1.4140625,0L19,6.9140625l-4.2929688,4.2929688
					C14.5117188,11.4023438,14.2558594,11.5,14,11.5z" class="color332851 svgShape"></path></svg></g></svg>