<svg xmlns="http://www.w3.org/2000/svg" viewBox="0 0 176 87" width="1200" height="593">
	<style>
		tspan { white-space:pre }
		.shp0 { fill: #aa7dc9;stroke: #aa7dc9;stroke-width: 0.7 } 
		.shp1 { fill: #674182;stroke: #674182;stroke-width: 0.7 } 
		.shp2 { fill: #674182;stroke: #674182;stroke-width: 0.1 } 
	</style>
	<path id="Layer 1" class="shp0" d="M73 8L8 8L19 27L51 27L45 37L24 37L27 42L49 42L60 22L22 22L17 13L70 13L73 8Z" />
	<path id="Layer 2" class="shp1" d="M81 8L87 8L48 76L47 76L32 49L38 49L47 66L48 66L81 8Z" />
	<path id="VSCOUT " fill="#aa7dc9" aria-label="VSCOUT"  d="M86.18 36.4L81.32 47.34L76.49 36.4L75.05 36.4L80.63 49L81.95 49L87.53 36.4ZM92.82 49.11C96.04 49.11 97.52 47.52 97.52 45.67C97.52 41.08 89.76 43.17 89.76 39.71C89.76 38.45 90.79 37.43 93.09 37.43C94.21 37.43 95.47 37.77 96.55 38.47L97 37.41C95.99 36.71 94.51 36.29 93.09 36.29C89.89 36.29 88.45 37.89 88.45 39.75C88.45 44.41 96.2 42.29 96.2 45.74C96.2 46.98 95.18 47.97 92.82 47.97C91.16 47.97 89.56 47.33 88.66 46.44L88.14 47.47C89.08 48.44 90.93 49.11 92.82 49.11ZM105.89 49.11C107.74 49.11 109.4 48.48 110.51 47.25L109.67 46.41C108.64 47.47 107.38 47.92 105.94 47.92C102.9 47.92 100.61 45.69 100.61 42.7C100.61 39.71 102.9 37.48 105.94 37.48C107.38 37.48 108.64 37.93 109.67 38.97L110.51 38.13C109.4 36.9 107.74 36.29 105.91 36.29C102.11 36.29 99.3 39.01 99.3 42.7C99.3 46.39 102.11 49.11 105.89 49.11ZM118.6 49.11C122.38 49.11 125.2 46.39 125.2 42.7C125.2 39.01 122.38 36.29 118.6 36.29C114.78 36.29 111.97 39.03 111.97 42.7C111.97 46.37 114.78 49.11 118.6 49.11ZM118.6 47.92C115.55 47.92 113.29 45.71 113.29 42.7C113.29 39.69 115.55 37.48 118.6 37.48C121.62 37.48 123.87 39.69 123.87 42.7C123.87 45.71 121.62 47.92 118.6 47.92ZM133.27 49.11C136.49 49.11 138.43 47.24 138.43 43.62L138.43 36.4L137.14 36.4L137.14 43.56C137.14 46.55 135.73 47.92 133.27 47.92C130.82 47.92 129.41 46.55 129.41 43.56L129.41 36.4L128.08 36.4L128.08 43.62C128.08 47.24 130.04 49.11 133.27 49.11ZM144.64 49L145.97 49L145.97 37.55L150.4 37.55L150.4 36.4L140.21 36.4L140.21 37.55L144.64 37.55Z" />
	<path id="Layer 3" class="shp2" d="M69.67 69.54L69.66 68.54L154 67.87L154 68.87L69.67 69.54Z" />
	<path id="Avalanche " fill="#aa7dc9" aria-label="Avalanche"  d="M91.64 60L92.58 60L88.74 51.6L87.86 51.6L84.02 60L84.95 60L85.96 57.76L90.64 57.76ZM86.28 57.04L88.3 52.52L90.31 57.04ZM97.94 53.69L95.56 59.06L93.19 53.69L92.3 53.69L95.1 60L95.98 60L98.78 53.69ZM102 53.64C101 53.64 100.07 53.95 99.43 54.49L99.82 55.13C100.33 54.67 101.1 54.38 101.92 54.38C103.09 54.38 103.7 54.97 103.7 56.05L103.7 56.44L101.7 56.44C99.89 56.44 99.26 57.25 99.26 58.22C99.26 59.32 100.14 60.06 101.57 60.06C102.61 60.06 103.36 59.66 103.74 59.02L103.74 60L104.56 60L104.56 56.09C104.56 54.46 103.63 53.64 102 53.64ZM101.7 59.39C100.69 59.39 100.1 58.93 100.1 58.2C100.1 57.55 100.5 57.07 101.72 57.07L103.7 57.07L103.7 58.1C103.37 58.93 102.66 59.39 101.7 59.39ZM106.87 60L107.72 60L107.72 51.1L106.87 51.1ZM112.31 53.64C111.31 53.64 110.38 53.95 109.74 54.49L110.12 55.13C110.64 54.67 111.41 54.38 112.22 54.38C113.4 54.38 114.01 54.97 114.01 56.05L114.01 56.44L112.01 56.44C110.2 56.44 109.57 57.25 109.57 58.22C109.57 59.32 110.45 60.06 111.88 60.06C112.92 60.06 113.66 59.66 114.05 59.02L114.05 60L114.86 60L114.86 56.09C114.86 54.46 113.94 53.64 112.31 53.64ZM112.01 59.39C111 59.39 110.41 58.93 110.41 58.2C110.41 57.55 110.81 57.07 112.03 57.07L114.01 57.07L114.01 58.1C113.68 58.93 112.97 59.39 112.01 59.39ZM120.4 53.64C119.3 53.64 118.45 54.08 118 54.85L118 53.69L117.18 53.69L117.18 60L118.03 60L118.03 56.69C118.03 55.25 118.88 54.41 120.24 54.41C121.44 54.41 122.14 55.09 122.14 56.42L122.14 60L122.99 60L122.99 56.34C122.99 54.53 121.93 53.64 120.4 53.64ZM127.94 60.06C129.01 60.06 129.91 59.63 130.42 58.81L129.78 58.38C129.35 59.02 128.68 59.3 127.94 59.3C126.56 59.3 125.56 58.33 125.56 56.84C125.56 55.37 126.56 54.38 127.94 54.38C128.68 54.38 129.35 54.68 129.78 55.32L130.42 54.89C129.91 54.06 129.01 53.64 127.94 53.64C126.06 53.64 124.69 54.96 124.69 56.84C124.69 58.73 126.06 60.06 127.94 60.06ZM135.2 53.64C134.14 53.64 133.31 54.06 132.84 54.79L132.84 51.1L131.99 51.1L131.99 60L132.84 60L132.84 56.69C132.84 55.25 133.69 54.41 135.05 54.41C136.25 54.41 136.94 55.09 136.94 56.42L136.94 60L137.8 60L137.8 56.34C137.8 54.53 136.74 53.64 135.2 53.64ZM145.64 56.84C145.64 54.95 144.36 53.64 142.58 53.64C140.81 53.64 139.5 54.97 139.5 56.84C139.5 58.72 140.84 60.06 142.81 60.06C143.81 60.06 144.68 59.7 145.25 59.03L144.77 58.48C144.29 59.03 143.6 59.3 142.84 59.3C141.46 59.3 140.45 58.43 140.35 57.11L145.63 57.11C145.63 57.01 145.64 56.92 145.64 56.84ZM142.58 54.37C143.82 54.37 144.72 55.24 144.83 56.47L140.35 56.47C140.46 55.24 141.36 54.37 142.58 54.37Z" />
</svg>