<svg xmlns="http://www.w3.org/2000/svg" viewBox="0 0 176 87" width="176" height="87">
	<style>
		tspan { white-space:pre }
		.shp0 { mix-blend-mode: darken;fill: #808080;stroke: #909090;stroke-width: 0.7 } 
		.shp1 { fill: #676568;stroke: #676568;stroke-width: 0.7 } 
		.shp2 { fill: #808080 } 
		.shp3 { fill: #808080;stroke: #808080;stroke-width: 0.1 } 
	</style>
	<path id="Layer 1" class="shp0" d="M73 8L8 8L19 27L51 27L45 37L24 37L27 42L49 42L60 22L22 22L17 13L70 13L73 8Z" />
	<path id="Layer 2" class="shp1" d="M81 8L87 8L48 76L47 76L32 49L38 49L47 66L48 66L81 8Z" />
	<path id="VSCOUT " fill-rule="evenodd" class="shp2" d="M87.53 36.4L81.95 49L80.63 49L75.05 36.4L76.49 36.4L81.32 47.34L86.18 36.4L87.53 36.4ZM88.14 47.47L88.66 46.44C89.56 47.33 91.16 47.97 92.82 47.97C95.18 47.97 96.2 46.98 96.2 45.74C96.2 42.29 88.45 44.41 88.45 39.75C88.45 37.89 89.89 36.29 93.09 36.29C94.51 36.29 95.99 36.71 97 37.41L96.55 38.47C95.47 37.77 94.21 37.43 93.09 37.43C90.79 37.43 89.76 38.45 89.76 39.71C89.76 43.17 97.52 41.08 97.52 45.67C97.52 47.52 96.04 49.11 92.82 49.11C90.93 49.11 89.08 48.44 88.14 47.47ZM99.3 42.7C99.3 39.01 102.11 36.29 105.91 36.29C107.74 36.29 109.4 36.9 110.51 38.13L109.67 38.97C108.64 37.93 107.38 37.48 105.94 37.48C102.9 37.48 100.61 39.71 100.61 42.7C100.61 45.69 102.9 47.92 105.94 47.92C107.38 47.92 108.64 47.47 109.67 46.41L110.51 47.25C109.4 48.48 107.74 49.11 105.89 49.11C102.11 49.11 99.3 46.39 99.3 42.7ZM111.97 42.7C111.97 39.03 114.78 36.29 118.6 36.29C122.38 36.29 125.2 39.01 125.2 42.7C125.2 46.39 122.38 49.11 118.6 49.11C114.78 49.11 111.97 46.37 111.97 42.7ZM123.87 42.7C123.87 39.69 121.62 37.48 118.6 37.48C115.55 37.48 113.29 39.69 113.29 42.7C113.29 45.71 115.55 47.92 118.6 47.92C121.62 47.92 123.87 45.71 123.87 42.7ZM128.08 43.62L128.08 36.4L129.41 36.4L129.41 43.56C129.41 46.55 130.82 47.92 133.27 47.92C135.73 47.92 137.14 46.55 137.14 43.56L137.14 36.4L138.43 36.4L138.43 43.62C138.43 47.24 136.49 49.11 133.27 49.11C130.04 49.11 128.08 47.24 128.08 43.62ZM144.64 37.55L140.21 37.55L140.21 36.4L150.4 36.4L150.4 37.55L145.97 37.55L145.97 49L144.64 49L144.64 37.55Z" />
	<path id="Layer 3" class="shp3" d="M69.67 69.54L69.66 68.54L154 67.87L154 68.87L69.67 69.54Z" />
	<path id="Avalanche " fill-rule="evenodd" class="shp2" d="M90.64 57.76L85.96 57.76L84.95 60L84.02 60L87.86 51.6L88.74 51.6L92.58 60L91.64 60L90.64 57.76ZM90.31 57.04L88.3 52.52L86.28 57.04L90.31 57.04ZM98.78 53.69L95.98 60L95.1 60L92.3 53.69L93.19 53.69L95.56 59.06L97.94 53.69L98.78 53.69ZM104.56 56.09L104.56 60L103.74 60L103.74 59.02C103.36 59.66 102.61 60.06 101.57 60.06C100.14 60.06 99.26 59.32 99.26 58.22C99.26 57.25 99.89 56.44 101.7 56.44L103.7 56.44L103.7 56.05C103.7 54.97 103.09 54.38 101.92 54.38C101.1 54.38 100.33 54.67 99.82 55.13L99.43 54.49C100.07 53.95 101 53.64 102 53.64C103.63 53.64 104.56 54.46 104.56 56.09ZM103.7 58.1L103.7 57.07L101.72 57.07C100.5 57.07 100.1 57.55 100.1 58.2C100.1 58.93 100.69 59.39 101.7 59.39C102.66 59.39 103.37 58.93 103.7 58.1ZM106.87 51.1L107.72 51.1L107.72 60L106.87 60L106.87 51.1ZM114.86 56.09L114.86 60L114.05 60L114.05 59.02C113.66 59.66 112.92 60.06 111.88 60.06C110.45 60.06 109.57 59.32 109.57 58.22C109.57 57.25 110.2 56.44 112.01 56.44L114.01 56.44L114.01 56.05C114.01 54.97 113.4 54.38 112.22 54.38C111.41 54.38 110.64 54.67 110.12 55.13L109.74 54.49C110.38 53.95 111.31 53.64 112.31 53.64C113.94 53.64 114.86 54.46 114.86 56.09ZM114.01 58.1L114.01 57.07L112.03 57.07C110.81 57.07 110.41 57.55 110.41 58.2C110.41 58.93 111 59.39 112.01 59.39C112.97 59.39 113.68 58.93 114.01 58.1ZM122.99 56.34L122.99 60L122.14 60L122.14 56.42C122.14 55.09 121.44 54.41 120.24 54.41C118.88 54.41 118.03 55.25 118.03 56.69L118.03 60L117.18 60L117.18 53.69L118 53.69L118 54.85C118.45 54.08 119.3 53.64 120.4 53.64C121.93 53.64 122.99 54.53 122.99 56.34ZM124.69 56.84C124.69 54.96 126.06 53.64 127.94 53.64C129.01 53.64 129.91 54.06 130.42 54.89L129.78 55.32C129.35 54.68 128.68 54.38 127.94 54.38C126.56 54.38 125.56 55.37 125.56 56.84C125.56 58.33 126.56 59.3 127.94 59.3C128.68 59.3 129.35 59.02 129.78 58.38L130.42 58.81C129.91 59.63 129.01 60.06 127.94 60.06C126.06 60.06 124.69 58.73 124.69 56.84ZM137.8 56.34L137.8 60L136.94 60L136.94 56.42C136.94 55.09 136.25 54.41 135.05 54.41C133.69 54.41 132.84 55.25 132.84 56.69L132.84 60L131.99 60L131.99 51.1L132.84 51.1L132.84 54.79C133.31 54.06 134.14 53.64 135.2 53.64C136.74 53.64 137.8 54.53 137.8 56.34ZM145.63 57.11L140.35 57.11C140.45 58.43 141.46 59.3 142.84 59.3C143.6 59.3 144.29 59.03 144.77 58.48L145.25 59.03C144.68 59.7 143.81 60.06 142.81 60.06C140.84 60.06 139.5 58.72 139.5 56.84C139.5 54.97 140.81 53.64 142.58 53.64C144.36 53.64 145.64 54.95 145.64 56.84C145.64 56.92 145.63 57.01 145.63 57.11ZM140.35 56.47L144.83 56.47C144.72 55.24 143.82 54.37 142.58 54.37C141.36 54.37 140.46 55.24 140.35 56.47Z" />
</svg>