<!DOCTYPE svg PUBLIC "-//W3C//DTD SVG 20010904//EN" "http://www.w3.org/TR/2001/REC-SVG-20010904/DTD/svg10.dtd">
<svg version="1.0" xmlns="http://www.w3.org/2000/svg" width="1200px" height="507px" viewBox="0 0 12000 5070" preserveAspectRatio="xMidYMid meet">
<g id="layer101" fill="#aa7dc9" stroke="none">
 <path d="M3253 3681 c-26 -12 -52 -35 -70 -62 -24 -37 -28 -52 -28 -113 0 -129 59 -197 180 -204 52 -4 70 0 104 19 46 25 51 41 20 63 -19 13 -24 12 -55 -6 -87 -51 -197 37 -179 145 9 50 57 105 100 113 40 7 64 0 92 -25 20 -19 21 -19 52 1 31 20 31 21 14 41 -44 49 -154 62 -230 28z"/>
 <path d="M303 3683 c2 -5 39 -90 83 -190 l79 -183 33 0 c22 0 35 6 39 18 4 9 39 93 80 185 40 93 73 170 73 173 0 2 -18 4 -40 4 -38 0 -41 -3 -56 -40 l-16 -40 -83 0 -83 0 -16 40 c-15 37 -18 40 -57 40 -22 0 -38 -3 -36 -7z m221 -210 c-14 -38 -27 -69 -28 -71 -2 -1 -12 21 -24 50 -11 29 -23 61 -27 71 -6 15 -1 17 48 17 l56 0 -25 -67z"/>
 <path d="M841 3509 c-39 -99 -71 -185 -71 -190 0 -5 17 -9 38 -9 l38 0 50 141 c56 161 44 163 114 -25 22 -60 42 -111 44 -113 2 -2 20 -3 39 -1 l35 3 -76 188 -76 187 -32 0 -32 0 -71 -181z"/>
 <path d="M1210 3682 c0 -5 35 -89 78 -188 76 -174 79 -179 110 -182 36 -4 28 -18 136 231 l64 147 -42 0 c-41 0 -44 -2 -59 -40 l-15 -40 -86 0 -85 0 -12 40 c-11 38 -14 40 -51 40 -21 0 -38 -4 -38 -8z m238 -154 c-3 -7 -13 -37 -23 -65 -11 -29 -22 -53 -26 -53 -6 0 -49 104 -49 121 0 5 23 9 51 9 37 0 50 -4 47 -12z"/>
 <path d="M1740 3500 l0 -190 40 0 40 0 0 160 0 160 80 0 80 0 0 30 0 30 -120 0 -120 0 0 -190z"/>
 <path d="M2124 3613 c18 -43 55 -129 82 -191 l49 -113 33 3 c33 3 34 4 113 186 43 101 79 186 79 188 0 2 -18 4 -40 4 -38 0 -41 -3 -56 -40 l-16 -40 -83 0 -83 0 -16 40 c-15 37 -19 40 -56 40 l-39 0 33 -77z m191 -140 c-14 -37 -27 -68 -29 -70 -2 -2 -12 20 -24 49 -11 29 -23 61 -27 71 -6 15 0 17 49 17 l56 0 -25 -67z"/>
 <path d="M2630 3500 l0 -190 48 0 47 0 93 141 92 142 0 -142 0 -141 35 0 35 0 0 190 0 190 -47 0 -48 0 -90 -143 -90 -142 -3 143 -3 142 -34 0 -35 0 0 -190z"/>
 <path d="M3650 3500 l0 -190 35 0 35 0 0 75 0 75 85 0 85 0 0 -75 0 -75 40 0 40 0 0 190 0 190 -40 0 -40 0 0 -80 0 -80 -85 0 -85 0 0 80 0 80 -35 0 -35 0 0 -190z"/>
 <path d="M4160 3500 l0 -190 125 0 125 0 0 30 0 30 -90 0 -90 0 0 45 0 45 85 0 85 0 0 35 0 35 -85 0 -85 0 0 50 0 50 95 0 95 0 0 30 0 30 -130 0 -130 0 0 -190z"/>
 <path d="M4770 2630 l0 -1050 3570 0 3570 0 0 1050 0 1050 -3570 0 -3570 0 0 -1050z m7090 -5 l0 -995 -3515 0 -3515 0 0 995 0 995 3515 0 3515 0 0 -995z"/>
 <path d="M6643 3330 c-143 -26 -240 -93 -292 -204 -46 -95 -47 -104 -15 -116 15 -6 28 -9 29 -8 1 2 9 24 18 49 59 157 162 218 369 219 243 0 346 -78 356 -272 4 -80 2 -91 -22 -132 -44 -75 -113 -117 -370 -226 -176 -75 -276 -142 -321 -214 -28 -47 -30 -55 -30 -150 1 -114 21 -175 77 -233 61 -63 199 -100 342 -91 165 11 261 84 322 244 13 36 23 67 22 68 -2 1 -43 33 -91 70 -83 63 -91 67 -135 64 l-46 -3 101 -78 102 -77 -20 -49 c-30 -70 -72 -116 -136 -147 -49 -24 -68 -28 -152 -28 -225 0 -314 67 -328 248 -12 151 59 214 397 356 155 64 224 106 282 168 59 63 71 102 66 217 -9 219 -125 319 -378 330 -52 2 -118 0 -147 -5z"/>
 <path d="M7751 3329 c-237 -42 -334 -208 -334 -569 0 -235 34 -366 119 -460 135 -150 477 -161 637 -20 l38 33 -22 24 -23 23 -30 -29 c-67 -65 -205 -97 -348 -81 -90 11 -136 30 -189 77 -88 79 -119 190 -119 423 0 180 11 263 46 341 53 118 141 170 297 177 152 7 239 -15 310 -78 l34 -29 22 23 23 24 -52 41 c-31 25 -78 49 -118 61 -77 25 -213 33 -291 19z"/>
 <path d="M8765 3326 c-89 -20 -128 -40 -180 -87 -55 -51 -99 -132 -122 -226 -24 -97 -24 -411 0 -506 50 -198 148 -292 334 -319 206 -30 396 43 466 178 57 111 86 327 68 509 -25 257 -109 391 -276 441 -72 21 -218 27 -290 10z m318 -90 c145 -71 194 -211 184 -526 -7 -221 -33 -308 -115 -382 -63 -57 -138 -80 -262 -80 -156 0 -245 36 -304 120 -120 174 -113 656 12 794 82 90 136 109 308 105 108 -2 126 -6 177 -31z"/>
 <path d="M9944 3330 c-67 -14 -130 -49 -177 -99 -56 -59 -82 -110 -109 -209 -19 -70 -22 -110 -26 -449 l-4 -373 30 0 30 0 5 368 c4 294 8 379 21 430 47 182 152 272 316 272 126 0 236 -65 281 -166 49 -108 52 -139 57 -531 l4 -373 30 0 30 0 -5 378 c-3 252 -9 394 -17 427 -20 81 -75 190 -117 232 -83 83 -217 119 -349 93z"/>
 <path d="M5652 3223 c-17 -48 -125 -348 -241 -666 -116 -318 -211 -580 -211 -583 0 -3 14 -4 32 -2 l32 3 93 255 c51 140 134 368 184 505 146 405 146 404 157 375 27 -71 127 -345 152 -415 15 -44 76 -210 134 -369 58 -159 106 -291 106 -293 0 -1 -157 -3 -350 -3 l-350 0 0 -30 0 -30 394 0 395 0 -19 53 c-10 28 -40 113 -68 187 -27 74 -88 243 -136 375 -48 132 -93 256 -100 275 -8 19 -46 125 -86 235 -40 110 -76 204 -80 208 -4 5 -21 -31 -38 -80z"/>
 <path d="M11030 2790 l0 -520 -200 0 -200 0 0 -35 0 -35 433 2 432 3 0 30 0 30 -202 3 -203 2 0 520 0 520 -30 0 -30 0 0 -520z"/>
 <path d="M395 2998 c-61 -35 -58 -70 14 -198 68 -123 564 -992 622 -1093 38 -64 65 -87 104 -87 31 0 78 63 181 243 131 231 133 240 74 352 -23 44 -57 105 -75 135 -18 30 -100 172 -180 315 -154 273 -180 309 -232 331 -42 18 -477 20 -508 2z"/>
 <path d="M1339 2980 c-40 -39 -37 -58 32 -176 28 -49 83 -143 121 -209 38 -66 80 -130 94 -142 33 -30 79 -30 106 0 41 46 260 432 265 467 4 26 0 42 -15 60 l-20 25 -276 3 -277 3 -30 -31z"/>
 <path d="M2809 2981 c-16 -16 -29 -40 -29 -53 0 -13 22 -61 49 -108 481 -846 657 -1152 674 -1171 23 -25 57 -32 89 -20 25 9 111 147 230 367 64 119 70 101 -198 569 -219 382 -231 400 -273 422 -42 22 -53 23 -278 23 l-235 0 -29 -29z"/>
 <path d="M3793 3000 c-27 -11 -43 -40 -43 -77 0 -32 236 -446 271 -475 29 -25 75 -23 102 5 24 23 249 405 267 451 13 35 -10 83 -46 96 -32 12 -521 12 -551 0z"/>
 <path d="M2293 2938 c-11 -13 -57 -86 -101 -163 -44 -77 -173 -304 -287 -505 -114 -201 -234 -412 -267 -469 -73 -128 -80 -159 -44 -196 l26 -26 258 3 c245 3 258 4 287 25 21 14 97 136 242 385 116 199 219 378 228 397 31 63 18 108 -88 301 -145 265 -145 264 -192 268 -32 2 -45 -2 -62 -20z"/>
 <path d="M2824 2150 c-20 -8 -272 -426 -288 -477 -8 -26 16 -78 39 -87 9 -3 139 -6 289 -6 272 0 273 0 294 23 44 46 37 63 -186 444 -59 101 -94 125 -148 103z"/>
 </g>

</svg>