<svg id="SvgjsSvg1025" width="288" height="288" xmlns="http://www.w3.org/2000/svg" version="1.1" xmlns:xlink="http://www.w3.org/1999/xlink" xmlns:svgjs="http://svgjs.com/svgjs"><defs id="SvgjsDefs1026"></defs><g id="SvgjsG1027" transform="matrix(0.9167,0,0,0.9167,11.995201737773414,12.020189698123943)"><svg xmlns="http://www.w3.org/2000/svg" width="288" height="288" viewBox="0 0 24 24"><path d="M23 23H1c-.4 0-.7-.2-.9-.5-.2-.3-.2-.7 0-1l11-20c.4-.6 1.4-.6 1.8 0l11 20c.2.3.2.7 0 1-.2.3-.5.5-.9.5zM2.7 21h18.6L12 4.1 2.7 21z" fill="#ff6000" class="color000 svgShape"></path><path d="M12 16c-.6 0-1-.4-1-1v-5c0-.6.4-1 1-1s1 .4 1 1v5c0 .6-.4 1-1 1z" fill="#ff6000" class="color000 svgShape"></path><circle cx="12" cy="18" r="1" fill="#ff6000" class="color000 svgShape"></circle><path d="M12 19.5c-.8 0-1.5-.7-1.5-1.5s.7-1.5 1.5-1.5 1.5.7 1.5 1.5-.7 1.5-1.5 1.5zm0-2c-.3 0-.5.2-.5.5s.2.5.5.5.5-.2.5-.5-.2-.5-.5-.5z" fill="#ff6000" class="color000 svgShape"></path></svg></g></svg>