<svg id="SvgjsSvg1001" width="288" height="288" xmlns="http://www.w3.org/2000/svg" version="1.1" xmlns:xlink="http://www.w3.org/1999/xlink" xmlns:svgjs="http://svgjs.com/svgjs"><defs id="SvgjsDefs1002"></defs><g id="SvgjsG1008" transform="matrix(0.9167,0,0,0.9167,11.996136451339737,12.57300064506532)"><svg xmlns="http://www.w3.org/2000/svg" viewBox="0 0 64 64" width="288" height="288"><g data-name="Layer 1" fill="#404040" class="color000 svgShape"><path fill="#565656" d="M59.229,13.746c-18.153-6.412-36.3,9.948-54.458,1.126V54.358c18.153,8.822,36.305-7.539,54.458-1.127Z" class="color228ac4 svgShape"></path><path d="M59.23,28.87V53.23c-6.23-2.2-12.45-1.72-18.68-.49-2.22.43-4.43.96-6.65,1.5-7.98,1.93-15.95,3.96-23.93,2A35.272,35.272,0,0,1,59.23,28.87Z" opacity=".2" style="mix-blend-mode:overlay" fill="#404040" class="color000 svgShape"></path><path fill="#d2d2d2" d="M32.753 53.269C24.4 55.533 14.943 58.1 5.771 53.4V11.646c7.445 3.426 15.088 2.391 22.275.719a1 1 0 0 0-.453-1.947C20.315 12.11 12.571 13.129 5.249 9.147c-.019-.01-.039-.013-.058-.022s-.051-.02-.077-.03A1.006 1.006 0 0 0 4.8 9.031c-.008 0-.015-.005-.024-.005l-.007 0a1 1 0 0 0-.34.068c-.028.011-.054.022-.081.035a.867.867 0 0 0-.083.036.973.973 0 0 0-.178.14c-.007.006-.014.01-.02.016a.993.993 0 0 0-.188.279.775.775 0 0 0-.033.079.987.987 0 0 0-.07.345V54a.978.978 0 0 0 .07.345c.011.03.023.057.036.085a1.03 1.03 0 0 0 .171.254c.009.008.014.019.022.027a1.01 1.01 0 0 0 .224.168 26.281 26.281 0 0 0 12.838 3.176c5.618 0 11.074-1.479 16.144-2.854a1 1 0 1 0-.523-1.929zM36.427 52.363a1.022 1.022 0 0 0-.381.015v0c-.032.009-.063.019-.094.03-.059.013-.121.028-.184.045a1 1 0 0 0 .261 1.965.989.989 0 0 0 .262-.035l.244-.066c.025 0 .049-.011.075-.018a.927.927 0 0 0 .653-.609.985.985 0 0 0 .034-.62A.875.875 0 0 0 36.427 52.363zM41.941 50.953l-.652.133c-.785.16-1.023.208-2.147.5a1 1 0 1 0 .494 1.938c1.074-.274 1.3-.321 2.051-.473l.658-.134a1 1 0 1 0-.4-1.959zM59.229 11.214a1 1 0 0 0-1 1V48.786a1 1 0 0 0 2 0V12.214A1 1 0 0 0 59.229 11.214z" class="color3c3c3b svgShape"></path><path fill="#f5f5f5" d="M32,22.432A12.34,12.34,0,1,0,44.34,34.771,12.354,12.354,0,0,0,32,22.432ZM31.183,33.95H26.8a14.657,14.657,0,0,1,.527-3.318,16.09,16.09,0,0,0,3.856.626Zm0,1.639v2.7a16.125,16.125,0,0,0-3.849.62,14.439,14.439,0,0,1-.534-3.316Zm1.639,0H37.2a14.657,14.657,0,0,1-.527,3.317,16.067,16.067,0,0,0-3.852-.62Zm0-1.639V31.258a16.082,16.082,0,0,0,3.844-.623A14.539,14.539,0,0,1,37.2,33.95Zm0-4.33V24.767a11.164,11.164,0,0,1,3.291,4.326A14.475,14.475,0,0,1,32.822,29.62Zm-1.639-4.871V29.62a14.532,14.532,0,0,1-3.308-.532A10.978,10.978,0,0,1,31.183,24.749Zm-6.025,9.2H21.34a10.628,10.628,0,0,1,1.889-5.291,12.833,12.833,0,0,0,2.548,1.426A16.267,16.267,0,0,0,25.158,33.95Zm0,1.639a16.242,16.242,0,0,0,.619,3.867,13.1,13.1,0,0,0-2.549,1.427,10.628,10.628,0,0,1-1.888-5.294Zm6.025,4.335v4.855a11.144,11.144,0,0,1-3.3-4.331A14.494,14.494,0,0,1,31.183,39.924Zm1.639,4.866V39.924a14.518,14.518,0,0,1,3.305.526A10.978,10.978,0,0,1,32.822,44.79Zm6.02-9.2H42.66a10.628,10.628,0,0,1-1.888,5.294,13.155,13.155,0,0,0-2.548-1.428A16.294,16.294,0,0,0,38.842,35.589Zm0-1.639a16.275,16.275,0,0,0-.619-3.866,12.954,12.954,0,0,0,2.548-1.426A10.632,10.632,0,0,1,42.66,33.95Zm.889-6.558a11.348,11.348,0,0,1-2.055,1.147,12.8,12.8,0,0,0-2.681-4.034A10.71,10.71,0,0,1,39.731,27.392ZM29.005,24.505a12.81,12.81,0,0,0-2.682,4.035,11.248,11.248,0,0,1-2.054-1.147A10.706,10.706,0,0,1,29.005,24.505ZM24.268,42.149A11.529,11.529,0,0,1,26.322,41a12.811,12.811,0,0,0,2.683,4.037A10.7,10.7,0,0,1,24.268,42.149Zm10.727,2.889A12.817,12.817,0,0,0,37.678,41a11.541,11.541,0,0,1,2.054,1.149A10.7,10.7,0,0,1,34.995,45.038Z" class="colorfff svgShape"></path></g></svg></g></svg>